<svg width="310" height="94" viewBox="0 0 310 94" fill="none" xmlns="http://www.w3.org/2000/svg">
<path d="M12.978 74.364L8.496 87H4.644L0.162 74.364H3.438L6.57 83.904L9.72 74.364H12.978ZM23.9304 84.768H19.2144L18.4584 87H15.2364L19.8084 74.364H23.3724L27.9444 87H24.6864L23.9304 84.768ZM23.1384 82.392L21.5724 77.766L20.0244 82.392H23.1384ZM30.6139 80.664C30.6139 79.416 30.8839 78.306 31.4239 77.334C31.9639 76.35 32.7139 75.588 33.6739 75.048C34.6459 74.496 35.7439 74.22 36.9679 74.22C38.4679 74.22 39.7519 74.616 40.8199 75.408C41.8879 76.2 42.6019 77.28 42.9619 78.648H39.5779C39.3259 78.12 38.9659 77.718 38.4979 77.442C38.0419 77.166 37.5199 77.028 36.9319 77.028C35.9839 77.028 35.2159 77.358 34.6279 78.018C34.0399 78.678 33.7459 79.56 33.7459 80.664C33.7459 81.768 34.0399 82.65 34.6279 83.31C35.2159 83.97 35.9839 84.3 36.9319 84.3C37.5199 84.3 38.0419 84.162 38.4979 83.886C38.9659 83.61 39.3259 83.208 39.5779 82.68H42.9619C42.6019 84.048 41.8879 85.128 40.8199 85.92C39.7519 86.7 38.4679 87.09 36.9679 87.09C35.7439 87.09 34.6459 86.82 33.6739 86.28C32.7139 85.728 31.9639 84.966 31.4239 83.994C30.8839 83.022 30.6139 81.912 30.6139 80.664ZM54.5129 84.768H49.7969L49.0409 87H45.8189L50.3909 74.364H53.9549L58.5269 87H55.2689L54.5129 84.768ZM53.7209 82.392L52.1549 77.766L50.6069 82.392H53.7209ZM70.8083 74.364V76.83H67.4603V87H64.3823V76.83H61.0343V74.364H70.8083ZM77.2311 74.364V87H74.1531V74.364H77.2311ZM87.2377 87.126C86.0497 87.126 84.9577 86.85 83.9617 86.298C82.9777 85.746 82.1917 84.978 81.6037 83.994C81.0277 82.998 80.7397 81.882 80.7397 80.646C80.7397 79.41 81.0277 78.3 81.6037 77.316C82.1917 76.332 82.9777 75.564 83.9617 75.012C84.9577 74.46 86.0497 74.184 87.2377 74.184C88.4257 74.184 89.5117 74.46 90.4957 75.012C91.4917 75.564 92.2717 76.332 92.8357 77.316C93.4117 78.3 93.6997 79.41 93.6997 80.646C93.6997 81.882 93.4117 82.998 92.8357 83.994C92.2597 84.978 91.4797 85.746 90.4957 86.298C89.5117 86.85 88.4257 87.126 87.2377 87.126ZM87.2377 84.318C88.2457 84.318 89.0497 83.982 89.6497 83.31C90.2617 82.638 90.5677 81.75 90.5677 80.646C90.5677 79.53 90.2617 78.642 89.6497 77.982C89.0497 77.31 88.2457 76.974 87.2377 76.974C86.2177 76.974 85.4017 77.304 84.7897 77.964C84.1897 78.624 83.8897 79.518 83.8897 80.646C83.8897 81.762 84.1897 82.656 84.7897 83.328C85.4017 83.988 86.2177 84.318 87.2377 84.318ZM108.516 87H105.438L100.29 79.206V87H97.2121V74.364H100.29L105.438 82.194V74.364H108.516V87ZM117.119 87.126C116.195 87.126 115.367 86.976 114.635 86.676C113.903 86.376 113.315 85.932 112.871 85.344C112.439 84.756 112.211 84.048 112.187 83.22H115.463C115.511 83.688 115.673 84.048 115.949 84.3C116.225 84.54 116.585 84.66 117.029 84.66C117.485 84.66 117.845 84.558 118.109 84.354C118.373 84.138 118.505 83.844 118.505 83.472C118.505 83.16 118.397 82.902 118.181 82.698C117.977 82.494 117.719 82.326 117.407 82.194C117.107 82.062 116.675 81.912 116.111 81.744C115.295 81.492 114.629 81.24 114.113 80.988C113.597 80.736 113.153 80.364 112.781 79.872C112.409 79.38 112.223 78.738 112.223 77.946C112.223 76.77 112.649 75.852 113.501 75.192C114.353 74.52 115.463 74.184 116.831 74.184C118.223 74.184 119.345 74.52 120.197 75.192C121.049 75.852 121.505 76.776 121.565 77.964H118.235C118.211 77.556 118.061 77.238 117.785 77.01C117.509 76.77 117.155 76.65 116.723 76.65C116.351 76.65 116.051 76.752 115.823 76.956C115.595 77.148 115.481 77.43 115.481 77.802C115.481 78.21 115.673 78.528 116.057 78.756C116.441 78.984 117.041 79.23 117.857 79.494C118.673 79.77 119.333 80.034 119.837 80.286C120.353 80.538 120.797 80.904 121.169 81.384C121.541 81.864 121.727 82.482 121.727 83.238C121.727 83.958 121.541 84.612 121.169 85.2C120.809 85.788 120.281 86.256 119.585 86.604C118.889 86.952 118.067 87.126 117.119 87.126Z" fill="#181E4B"/>
<path d="M56.1768 13.44L47.8368 33H45.0768L53.5368 13.71H41.9568V11.37H56.1768V13.44ZM63.1638 21.72C62.0438 21.28 61.1838 20.64 60.5838 19.8C59.9838 18.96 59.6838 17.94 59.6838 16.74C59.6838 15.66 59.9538 14.69 60.4938 13.83C61.0338 12.95 61.8338 12.26 62.8938 11.76C63.9738 11.24 65.2738 10.98 66.7938 10.98C68.3138 10.98 69.6038 11.24 70.6638 11.76C71.7438 12.26 72.5538 12.95 73.0938 13.83C73.6538 14.69 73.9338 15.66 73.9338 16.74C73.9338 17.9 73.6238 18.92 73.0038 19.8C72.3838 20.66 71.5338 21.3 70.4538 21.72C71.6938 22.1 72.6738 22.77 73.3938 23.73C74.1338 24.67 74.5038 25.81 74.5038 27.15C74.5038 28.45 74.1838 29.59 73.5438 30.57C72.9038 31.53 71.9938 32.28 70.8138 32.82C69.6538 33.34 68.3138 33.6 66.7938 33.6C65.2738 33.6 63.9338 33.34 62.7738 32.82C61.6338 32.28 60.7438 31.53 60.1038 30.57C59.4638 29.59 59.1438 28.45 59.1438 27.15C59.1438 25.81 59.5038 24.66 60.2238 23.7C60.9437 22.74 61.9238 22.08 63.1638 21.72ZM71.2938 17.07C71.2938 15.85 70.8938 14.91 70.0938 14.25C69.2938 13.59 68.1938 13.26 66.7938 13.26C65.4138 13.26 64.3238 13.59 63.5238 14.25C62.7238 14.91 62.3238 15.86 62.3238 17.1C62.3238 18.22 62.7338 19.12 63.5538 19.8C64.3938 20.48 65.4738 20.82 66.7938 20.82C68.1338 20.82 69.2138 20.48 70.0338 19.8C70.8738 19.1 71.2938 18.19 71.2938 17.07ZM66.7938 22.92C65.3138 22.92 64.1038 23.27 63.1638 23.97C62.2238 24.65 61.7537 25.68 61.7537 27.06C61.7537 28.34 62.2038 29.37 63.1038 30.15C64.0238 30.93 65.2538 31.32 66.7938 31.32C68.3338 31.32 69.5538 30.93 70.4538 30.15C71.3538 29.37 71.8038 28.34 71.8038 27.06C71.8038 25.72 71.3438 24.7 70.4238 24C69.5038 23.28 68.2938 22.92 66.7938 22.92Z" fill="#7D7D7D"/>
<path d="M77.5295 16.2C77.5295 14.84 77.9395 13.76 78.7595 12.96C79.5795 12.14 80.6295 11.73 81.9095 11.73C83.1895 11.73 84.2395 12.14 85.0595 12.96C85.8795 13.76 86.2895 14.84 86.2895 16.2C86.2895 17.58 85.8795 18.68 85.0595 19.5C84.2395 20.3 83.1895 20.7 81.9095 20.7C80.6295 20.7 79.5795 20.3 78.7595 19.5C77.9395 18.68 77.5295 17.58 77.5295 16.2ZM95.0495 12.06L82.8995 33H80.1995L92.3495 12.06H95.0495ZM81.9095 13.41C81.2295 13.41 80.6895 13.65 80.2895 14.13C79.9095 14.59 79.7195 15.28 79.7195 16.2C79.7195 17.12 79.9095 17.82 80.2895 18.3C80.6895 18.78 81.2295 19.02 81.9095 19.02C82.5895 19.02 83.1295 18.78 83.5295 18.3C83.9295 17.8 84.1295 17.1 84.1295 16.2C84.1295 15.28 83.9295 14.59 83.5295 14.13C83.1295 13.65 82.5895 13.41 81.9095 13.41ZM89.0195 28.86C89.0195 27.48 89.4295 26.39 90.2495 25.59C91.0695 24.77 92.1195 24.36 93.3995 24.36C94.6795 24.36 95.7195 24.77 96.5195 25.59C97.3395 26.39 97.7495 27.48 97.7495 28.86C97.7495 30.22 97.3395 31.31 96.5195 32.13C95.7195 32.95 94.6795 33.36 93.3995 33.36C92.1195 33.36 91.0695 32.96 90.2495 32.16C89.4295 31.34 89.0195 30.24 89.0195 28.86ZM93.3695 26.07C92.6895 26.07 92.1495 26.31 91.7495 26.79C91.3495 27.25 91.1495 27.94 91.1495 28.86C91.1495 29.76 91.3495 30.45 91.7495 30.93C92.1495 31.39 92.6895 31.62 93.3695 31.62C94.0495 31.62 94.5895 31.39 94.9895 30.93C95.3895 30.45 95.5895 29.76 95.5895 28.86C95.5895 27.94 95.3895 27.25 94.9895 26.79C94.5895 26.31 94.0495 26.07 93.3695 26.07Z" fill="#525252"/>
<path d="M182.06 73.9187V86.5547H178.982V81.3527H174.194V86.5547H171.116V73.9187H174.194V78.8687H178.982V73.9187H182.06ZM192.058 86.6807C190.87 86.6807 189.778 86.4047 188.782 85.8527C187.798 85.3007 187.012 84.5327 186.424 83.5487C185.848 82.5527 185.56 81.4367 185.56 80.2007C185.56 78.9647 185.848 77.8547 186.424 76.8707C187.012 75.8867 187.798 75.1187 188.782 74.5667C189.778 74.0147 190.87 73.7387 192.058 73.7387C193.246 73.7387 194.332 74.0147 195.316 74.5667C196.312 75.1187 197.092 75.8867 197.656 76.8707C198.232 77.8547 198.52 78.9647 198.52 80.2007C198.52 81.4367 198.232 82.5527 197.656 83.5487C197.08 84.5327 196.3 85.3007 195.316 85.8527C194.332 86.4047 193.246 86.6807 192.058 86.6807ZM192.058 83.8727C193.066 83.8727 193.87 83.5367 194.47 82.8647C195.082 82.1927 195.388 81.3047 195.388 80.2007C195.388 79.0847 195.082 78.1967 194.47 77.5367C193.87 76.8647 193.066 76.5287 192.058 76.5287C191.038 76.5287 190.222 76.8587 189.61 77.5187C189.01 78.1787 188.71 79.0727 188.71 80.2007C188.71 81.3167 189.01 82.2107 189.61 82.8827C190.222 83.5427 191.038 83.8727 192.058 83.8727ZM213.336 86.5547H210.258L205.11 78.7607V86.5547H202.032V73.9187H205.11L210.258 81.7487V73.9187H213.336V86.5547ZM220.446 76.3847V78.9407H224.568V81.3167H220.446V84.0887H225.108V86.5547H217.368V73.9187H225.108V76.3847H220.446ZM239.742 73.9187L235.368 82.3787V86.5547H232.29V82.3787L227.916 73.9187H231.408L233.856 79.2107L236.286 73.9187H239.742ZM257.092 73.9187V86.5547H254.014V78.9767L251.188 86.5547H248.704L245.86 78.9587V86.5547H242.782V73.9187H246.418L249.964 82.6667L253.474 73.9187H257.092ZM267.081 86.6807C265.893 86.6807 264.801 86.4047 263.805 85.8527C262.821 85.3007 262.035 84.5327 261.447 83.5487C260.871 82.5527 260.583 81.4367 260.583 80.2007C260.583 78.9647 260.871 77.8547 261.447 76.8707C262.035 75.8867 262.821 75.1187 263.805 74.5667C264.801 74.0147 265.893 73.7387 267.081 73.7387C268.269 73.7387 269.355 74.0147 270.339 74.5667C271.335 75.1187 272.115 75.8867 272.679 76.8707C273.255 77.8547 273.543 78.9647 273.543 80.2007C273.543 81.4367 273.255 82.5527 272.679 83.5487C272.103 84.5327 271.323 85.3007 270.339 85.8527C269.355 86.4047 268.269 86.6807 267.081 86.6807ZM267.081 83.8727C268.089 83.8727 268.893 83.5367 269.493 82.8647C270.105 82.1927 270.411 81.3047 270.411 80.2007C270.411 79.0847 270.105 78.1967 269.493 77.5367C268.893 76.8647 268.089 76.5287 267.081 76.5287C266.061 76.5287 265.245 76.8587 264.633 77.5187C264.033 78.1787 263.733 79.0727 263.733 80.2007C263.733 81.3167 264.033 82.2107 264.633 82.8827C265.245 83.5427 266.061 83.8727 267.081 83.8727ZM283.032 86.6807C281.844 86.6807 280.752 86.4047 279.756 85.8527C278.772 85.3007 277.986 84.5327 277.398 83.5487C276.822 82.5527 276.534 81.4367 276.534 80.2007C276.534 78.9647 276.822 77.8547 277.398 76.8707C277.986 75.8867 278.772 75.1187 279.756 74.5667C280.752 74.0147 281.844 73.7387 283.032 73.7387C284.22 73.7387 285.306 74.0147 286.29 74.5667C287.286 75.1187 288.066 75.8867 288.63 76.8707C289.206 77.8547 289.494 78.9647 289.494 80.2007C289.494 81.4367 289.206 82.5527 288.63 83.5487C288.054 84.5327 287.274 85.3007 286.29 85.8527C285.306 86.4047 284.22 86.6807 283.032 86.6807ZM283.032 83.8727C284.04 83.8727 284.844 83.5367 285.444 82.8647C286.056 82.1927 286.362 81.3047 286.362 80.2007C286.362 79.0847 286.056 78.1967 285.444 77.5367C284.844 76.8647 284.04 76.5287 283.032 76.5287C282.012 76.5287 281.196 76.8587 280.584 77.5187C279.984 78.1787 279.684 79.0727 279.684 80.2007C279.684 81.3167 279.984 82.2107 280.584 82.8827C281.196 83.5427 282.012 83.8727 283.032 83.8727ZM304.31 86.5547H301.232L296.084 78.7607V86.5547H293.006V73.9187H296.084L301.232 81.7487V73.9187H304.31V86.5547Z" fill="#181E4B"/>
<path d="M225.47 13.68H214.94V20.52C215.4 19.88 216.08 19.36 216.98 18.96C217.88 18.54 218.85 18.33 219.89 18.33C221.55 18.33 222.9 18.68 223.94 19.38C224.98 20.06 225.72 20.95 226.16 22.05C226.62 23.13 226.85 24.28 226.85 25.5C226.85 26.94 226.58 28.23 226.04 29.37C225.5 30.51 224.67 31.41 223.55 32.07C222.45 32.73 221.08 33.06 219.44 33.06C217.34 33.06 215.64 32.52 214.34 31.44C213.04 30.36 212.25 28.92 211.97 27.12H214.64C214.9 28.26 215.45 29.15 216.29 29.79C217.13 30.43 218.19 30.75 219.47 30.75C221.05 30.75 222.24 30.28 223.04 29.34C223.84 28.38 224.24 27.12 224.24 25.56C224.24 24 223.84 22.8 223.04 21.96C222.24 21.1 221.06 20.67 219.5 20.67C218.44 20.67 217.51 20.93 216.71 21.45C215.93 21.95 215.36 22.64 215 23.52H212.42V11.28H225.47V13.68ZM244.308 13.68H233.778V20.52C234.238 19.88 234.918 19.36 235.818 18.96C236.718 18.54 237.688 18.33 238.728 18.33C240.388 18.33 241.738 18.68 242.778 19.38C243.818 20.06 244.558 20.95 244.998 22.05C245.458 23.13 245.688 24.28 245.688 25.5C245.688 26.94 245.418 28.23 244.878 29.37C244.338 30.51 243.508 31.41 242.388 32.07C241.288 32.73 239.918 33.06 238.278 33.06C236.178 33.06 234.478 32.52 233.178 31.44C231.878 30.36 231.088 28.92 230.808 27.12H233.478C233.738 28.26 234.288 29.15 235.128 29.79C235.968 30.43 237.028 30.75 238.308 30.75C239.888 30.75 241.078 30.28 241.878 29.34C242.678 28.38 243.078 27.12 243.078 25.56C243.078 24 242.678 22.8 241.878 21.96C241.078 21.1 239.898 20.67 238.338 20.67C237.278 20.67 236.348 20.93 235.548 21.45C234.768 21.95 234.198 22.64 233.838 23.52H231.258V11.28H244.308V13.68ZM248.716 16.2C248.716 14.84 249.126 13.76 249.946 12.96C250.766 12.14 251.816 11.73 253.096 11.73C254.376 11.73 255.426 12.14 256.246 12.96C257.066 13.76 257.476 14.84 257.476 16.2C257.476 17.58 257.066 18.68 256.246 19.5C255.426 20.3 254.376 20.7 253.096 20.7C251.816 20.7 250.766 20.3 249.946 19.5C249.126 18.68 248.716 17.58 248.716 16.2ZM266.236 12.06L254.086 33H251.386L263.536 12.06H266.236ZM253.096 13.41C252.416 13.41 251.876 13.65 251.476 14.13C251.096 14.59 250.906 15.28 250.906 16.2C250.906 17.12 251.096 17.82 251.476 18.3C251.876 18.78 252.416 19.02 253.096 19.02C253.776 19.02 254.316 18.78 254.716 18.3C255.116 17.8 255.316 17.1 255.316 16.2C255.316 15.28 255.116 14.59 254.716 14.13C254.316 13.65 253.776 13.41 253.096 13.41ZM260.206 28.86C260.206 27.48 260.616 26.39 261.436 25.59C262.256 24.77 263.306 24.36 264.586 24.36C265.866 24.36 266.906 24.77 267.706 25.59C268.526 26.39 268.936 27.48 268.936 28.86C268.936 30.22 268.526 31.31 267.706 32.13C266.906 32.95 265.866 33.36 264.586 33.36C263.306 33.36 262.256 32.96 261.436 32.16C260.616 31.34 260.206 30.24 260.206 28.86ZM264.556 26.07C263.876 26.07 263.336 26.31 262.936 26.79C262.536 27.25 262.336 27.94 262.336 28.86C262.336 29.76 262.536 30.45 262.936 30.93C263.336 31.39 263.876 31.62 264.556 31.62C265.236 31.62 265.776 31.39 266.176 30.93C266.576 30.45 266.776 29.76 266.776 28.86C266.776 27.94 266.576 27.25 266.176 26.79C265.776 26.31 265.236 26.07 264.556 26.07Z" fill="#7D7D7D"/>
</svg>
