<svg width="310" height="25" viewBox="0 0 310 25" fill="none" xmlns="http://www.w3.org/2000/svg">
<path d="M39.8559 11.68C39.2284 11.4335 38.7466 11.0749 38.4104 10.6043C38.0742 10.1336 37.9062 9.56213 37.9062 8.88979C37.9062 8.28468 38.0574 7.7412 38.36 7.25936C38.6625 6.76631 39.1108 6.37972 39.7047 6.09957C40.3098 5.80823 41.0381 5.66255 41.8898 5.66255C42.7414 5.66255 43.4642 5.80823 44.0581 6.09957C44.6632 6.37972 45.117 6.76631 45.4196 7.25936C45.7333 7.7412 45.8902 8.28468 45.8902 8.88979C45.8902 9.53972 45.7165 10.1112 45.3691 10.6043C45.0218 11.0861 44.5455 11.4447 43.9404 11.68C44.6352 11.8929 45.1842 12.2683 45.5876 12.8062C46.0023 13.3328 46.2096 13.9716 46.2096 14.7223C46.2096 15.4507 46.0303 16.0894 45.6717 16.6385C45.3131 17.1764 44.8032 17.5966 44.1421 17.8991C43.4922 18.1905 42.7414 18.3362 41.8898 18.3362C41.0381 18.3362 40.2874 18.1905 39.6374 17.8991C38.9987 17.5966 38.5001 17.1764 38.1415 16.6385C37.7829 16.0894 37.6036 15.4507 37.6036 14.7223C37.6036 13.9716 37.8053 13.3272 38.2087 12.7894C38.6121 12.2515 39.1612 11.8817 39.8559 11.68ZM44.411 9.07468C44.411 8.39113 44.1869 7.86447 43.7387 7.49468C43.2905 7.12489 42.6742 6.94 41.8898 6.94C41.1166 6.94 40.5059 7.12489 40.0576 7.49468C39.6094 7.86447 39.3853 8.39674 39.3853 9.09149C39.3853 9.71901 39.615 10.2233 40.0744 10.6043C40.5451 10.9852 41.1502 11.1757 41.8898 11.1757C42.6405 11.1757 43.2457 10.9852 43.7051 10.6043C44.1757 10.2121 44.411 9.7022 44.411 9.07468ZM41.8898 12.3523C41.0605 12.3523 40.3826 12.5484 39.8559 12.9406C39.3293 13.3216 39.0659 13.8987 39.0659 14.6719C39.0659 15.3891 39.3181 15.9662 39.8223 16.4032C40.3378 16.8402 41.0269 17.0587 41.8898 17.0587C42.7526 17.0587 43.4362 16.8402 43.9404 16.4032C44.4447 15.9662 44.6968 15.3891 44.6968 14.6719C44.6968 13.9211 44.4391 13.3496 43.9236 12.9574C43.4081 12.554 42.7302 12.3523 41.8898 12.3523ZM56.6218 6.28447C57.8992 6.28447 59.003 6.52539 59.933 7.00723C60.8743 7.47787 61.5915 8.15581 62.0845 9.04106C62.5888 9.92631 62.8409 10.9684 62.8409 12.1674C62.8409 13.3665 62.5888 14.4086 62.0845 15.2938C61.5915 16.1679 60.8743 16.8402 59.933 17.3109C59.003 17.7703 57.8992 18 56.6218 18H52.9743V6.28447H56.6218ZM56.6218 16.7394C58.1345 16.7394 59.2887 16.3416 60.0843 15.546C60.8799 14.7391 61.2777 13.613 61.2777 12.1674C61.2777 10.7107 60.8743 9.57333 60.0675 8.75532C59.2719 7.9373 58.1233 7.5283 56.6218 7.5283H54.5039V16.7394H56.6218ZM64.287 13.3609C64.287 12.4196 64.4775 11.596 64.8585 10.89C65.2395 10.1728 65.7605 9.61816 66.4217 9.22596C67.094 8.83376 67.8392 8.63766 68.6572 8.63766C69.464 8.63766 70.1644 8.81135 70.7583 9.15872C71.3522 9.5061 71.7948 9.94312 72.0861 10.4698V8.78893H73.6325V18H72.0861V16.2855C71.7836 16.8234 71.3297 17.2716 70.7246 17.6302C70.1307 17.9776 69.436 18.1513 68.6404 18.1513C67.8224 18.1513 67.0828 17.9496 66.4217 17.5462C65.7605 17.1428 65.2395 16.5769 64.8585 15.8485C64.4775 15.1201 64.287 14.2909 64.287 13.3609ZM72.0861 13.3777C72.0861 12.6829 71.9461 12.0778 71.6659 11.5623C71.3858 11.0469 71.0048 10.6547 70.5229 10.3857C70.0523 10.1056 69.5312 9.96553 68.9597 9.96553C68.3883 9.96553 67.8672 10.1 67.3966 10.3689C66.9259 10.6379 66.5505 11.0301 66.2704 11.5455C65.9902 12.061 65.8502 12.6661 65.8502 13.3609C65.8502 14.0668 65.9902 14.6831 66.2704 15.2098C66.5505 15.7252 66.9259 16.123 67.3966 16.4032C67.8672 16.6721 68.3883 16.8066 68.9597 16.8066C69.5312 16.8066 70.0523 16.6721 70.5229 16.4032C71.0048 16.123 71.3858 15.7252 71.6659 15.2098C71.9461 14.6831 72.0861 14.0724 72.0861 13.3777ZM84.151 8.78893L78.6042 22.3366H77.0242L78.8395 17.8991L75.1248 8.78893H76.8224L79.7135 16.2519L82.571 8.78893H84.151ZM88.9494 18.1513C88.2434 18.1513 87.6103 18.0336 87.05 17.7983C86.4898 17.5518 86.0471 17.2156 85.7222 16.7898C85.3972 16.3528 85.2179 15.8541 85.1843 15.2938H86.7643C86.8091 15.7533 87.022 16.1287 87.403 16.42C87.7952 16.7113 88.3051 16.857 88.9326 16.857C89.5153 16.857 89.9747 16.7282 90.3109 16.4704C90.6471 16.2127 90.8151 15.8877 90.8151 15.4955C90.8151 15.0921 90.6359 14.7952 90.2773 14.6047C89.9187 14.403 89.364 14.2069 88.6132 14.0164C87.9297 13.8371 87.3694 13.6578 86.9324 13.4785C86.5066 13.288 86.1368 13.0135 85.823 12.6549C85.5205 12.2851 85.3692 11.8033 85.3692 11.2094C85.3692 10.7387 85.5093 10.3073 85.7894 9.91511C86.0695 9.52291 86.4673 9.21475 86.9828 8.99064C87.4983 8.75532 88.0866 8.63766 88.7477 8.63766C89.7674 8.63766 90.591 8.89539 91.2186 9.41085C91.8461 9.92631 92.1822 10.6323 92.2271 11.5287H90.6975C90.6639 11.0469 90.4678 10.6603 90.1092 10.3689C89.7618 10.0776 89.2912 9.93191 88.6973 9.93191C88.1482 9.93191 87.7112 10.0496 87.3862 10.2849C87.0612 10.5202 86.8988 10.8284 86.8988 11.2094C86.8988 11.5119 86.994 11.764 87.1845 11.9657C87.3862 12.1562 87.6327 12.3131 87.9241 12.4364C88.2266 12.5484 88.6412 12.6773 89.1679 12.823C89.829 13.0023 90.3669 13.1816 90.7815 13.3609C91.1961 13.5289 91.5491 13.7867 91.8405 14.134C92.143 14.4814 92.2999 14.9352 92.3111 15.4955C92.3111 15.9998 92.171 16.4536 91.8909 16.857C91.6107 17.2604 91.2129 17.5798 90.6975 17.8151C90.1932 18.0392 89.6105 18.1513 88.9494 18.1513Z" fill="#7D7D7D"/>
<path d="M166.386 7.24255V5.84745H169.546V18H168V7.24255H166.386ZM171.988 16.773C173.412 15.63 174.527 14.6943 175.333 13.966C176.14 13.2264 176.818 12.4588 177.367 11.6632C177.927 10.8564 178.208 10.0664 178.208 9.29319C178.208 8.56482 178.028 7.99333 177.67 7.57872C177.322 7.15291 176.756 6.94 175.972 6.94C175.21 6.94 174.616 7.18092 174.19 7.66277C173.776 8.1334 173.552 8.76652 173.518 9.56213H172.039C172.084 8.30709 172.465 7.3378 173.182 6.65425C173.899 5.97071 174.823 5.62893 175.955 5.62893C177.109 5.62893 178.023 5.9483 178.695 6.58702C179.379 7.22574 179.72 8.10539 179.72 9.22596C179.72 10.156 179.44 11.0637 178.88 11.9489C178.331 12.823 177.703 13.5962 176.997 14.2685C176.291 14.9296 175.389 15.7028 174.291 16.5881H180.073V17.8655H171.988V16.773ZM181.842 11.7977C181.842 9.87028 182.155 8.36872 182.783 7.29298C183.41 6.20603 184.508 5.66255 186.077 5.66255C187.635 5.66255 188.727 6.20603 189.355 7.29298C189.982 8.36872 190.296 9.87028 190.296 11.7977C190.296 13.7587 189.982 15.2826 189.355 16.3696C188.727 17.4565 187.635 18 186.077 18C184.508 18 183.41 17.4565 182.783 16.3696C182.155 15.2826 181.842 13.7587 181.842 11.7977ZM188.783 11.7977C188.783 10.8228 188.716 9.99915 188.582 9.32681C188.458 8.64326 188.195 8.09418 187.792 7.67957C187.4 7.26496 186.828 7.05766 186.077 7.05766C185.315 7.05766 184.733 7.26496 184.329 7.67957C183.937 8.09418 183.674 8.64326 183.539 9.32681C183.416 9.99915 183.354 10.8228 183.354 11.7977C183.354 12.8062 183.416 13.6522 183.539 14.3357C183.674 15.0193 183.937 15.5684 184.329 15.983C184.733 16.3976 185.315 16.6049 186.077 16.6049C186.828 16.6049 187.4 16.3976 187.792 15.983C188.195 15.5684 188.458 15.0193 188.582 14.3357C188.716 13.6522 188.783 12.8062 188.783 11.7977ZM204.962 9.7134C204.962 10.6883 204.626 11.5007 203.954 12.1506C203.292 12.7894 202.278 13.1087 200.911 13.1087H198.659V18H197.129V6.28447H200.911C202.234 6.28447 203.236 6.60383 203.92 7.24255C204.615 7.88128 204.962 8.70489 204.962 9.7134ZM200.911 11.8481C201.763 11.8481 202.39 11.6632 202.794 11.2934C203.197 10.9236 203.399 10.3969 203.399 9.7134C203.399 8.26787 202.57 7.54511 200.911 7.54511H198.659V11.8481H200.911ZM215.267 13.0415C215.267 13.3328 215.251 13.641 215.217 13.966H207.855C207.911 14.8736 208.219 15.5852 208.779 16.1006C209.351 16.6049 210.04 16.857 210.847 16.857C211.508 16.857 212.057 16.7057 212.494 16.4032C212.942 16.0894 213.256 15.6748 213.435 15.1594H215.083C214.836 16.0446 214.343 16.7674 213.603 17.3277C212.864 17.8767 211.945 18.1513 210.847 18.1513C209.973 18.1513 209.188 17.9552 208.494 17.563C207.81 17.1708 207.272 16.6161 206.88 15.8989C206.488 15.1706 206.292 14.3301 206.292 13.3777C206.292 12.4252 206.482 11.5904 206.863 10.8732C207.244 10.156 207.776 9.60695 208.46 9.22596C209.155 8.83376 209.95 8.63766 210.847 8.63766C211.721 8.63766 212.494 8.82815 213.166 9.20915C213.839 9.59014 214.354 10.1168 214.713 10.7891C215.083 11.4503 215.267 12.2011 215.267 13.0415ZM213.687 12.7221C213.687 12.1394 213.559 11.6408 213.301 11.2262C213.043 10.8004 212.69 10.481 212.242 10.2681C211.805 10.044 211.317 9.93191 210.78 9.93191C210.006 9.93191 209.345 10.1784 208.796 10.6715C208.258 11.1645 207.95 11.8481 207.872 12.7221H213.687ZM221.304 18.1513C220.441 18.1513 219.656 17.9552 218.95 17.563C218.256 17.1708 217.707 16.6161 217.303 15.8989C216.911 15.1706 216.715 14.3301 216.715 13.3777C216.715 12.4364 216.917 11.6072 217.32 10.89C217.735 10.1616 218.295 9.60695 219.001 9.22596C219.707 8.83376 220.497 8.63766 221.371 8.63766C222.245 8.63766 223.035 8.83376 223.741 9.22596C224.447 9.60695 225.002 10.156 225.405 10.8732C225.82 11.5904 226.027 12.4252 226.027 13.3777C226.027 14.3301 225.814 15.1706 225.388 15.8989C224.974 16.6161 224.408 17.1708 223.69 17.563C222.973 17.9552 222.178 18.1513 221.304 18.1513ZM221.304 16.8066C221.853 16.8066 222.368 16.6777 222.85 16.42C223.332 16.1623 223.719 15.7757 224.01 15.2602C224.312 14.7448 224.464 14.1172 224.464 13.3777C224.464 12.6381 224.318 12.0106 224.027 11.4951C223.735 10.9796 223.354 10.5987 222.884 10.3521C222.413 10.0944 221.903 9.96553 221.354 9.96553C220.794 9.96553 220.278 10.0944 219.808 10.3521C219.348 10.5987 218.979 10.9796 218.698 11.4951C218.418 12.0106 218.278 12.6381 218.278 13.3777C218.278 14.1284 218.413 14.7616 218.682 15.277C218.962 15.7925 219.331 16.1791 219.791 16.4368C220.25 16.6833 220.755 16.8066 221.304 16.8066ZM229.568 10.4866C229.87 9.95993 230.318 9.52291 230.912 9.17553C231.517 8.81695 232.218 8.63766 233.013 8.63766C233.831 8.63766 234.571 8.83376 235.232 9.22596C235.904 9.61816 236.431 10.1728 236.812 10.89C237.193 11.596 237.384 12.4196 237.384 13.3609C237.384 14.2909 237.193 15.1201 236.812 15.8485C236.431 16.5769 235.904 17.1428 235.232 17.5462C234.571 17.9496 233.831 18.1513 233.013 18.1513C232.229 18.1513 231.534 17.9776 230.929 17.6302C230.335 17.2716 229.881 16.829 229.568 16.3023V22.3702H228.038V8.78893H229.568V10.4866ZM235.82 13.3609C235.82 12.6661 235.68 12.061 235.4 11.5455C235.12 11.0301 234.739 10.6379 234.257 10.3689C233.787 10.1 233.265 9.96553 232.694 9.96553C232.134 9.96553 231.613 10.1056 231.131 10.3857C230.66 10.6547 230.279 11.0525 229.988 11.5791C229.708 12.0946 229.568 12.6941 229.568 13.3777C229.568 14.0724 229.708 14.6831 229.988 15.2098C230.279 15.7252 230.66 16.123 231.131 16.4032C231.613 16.6721 232.134 16.8066 232.694 16.8066C233.265 16.8066 233.787 16.6721 234.257 16.4032C234.739 16.123 235.12 15.7252 235.4 15.2098C235.68 14.6831 235.82 14.0668 235.82 13.3609ZM240.926 5.5617V18H239.397V5.5617H240.926ZM251.938 13.0415C251.938 13.3328 251.921 13.641 251.887 13.966H244.525C244.581 14.8736 244.889 15.5852 245.45 16.1006C246.021 16.6049 246.71 16.857 247.517 16.857C248.178 16.857 248.727 16.7057 249.164 16.4032C249.612 16.0894 249.926 15.6748 250.105 15.1594H251.753C251.506 16.0446 251.013 16.7674 250.274 17.3277C249.534 17.8767 248.615 18.1513 247.517 18.1513C246.643 18.1513 245.859 17.9552 245.164 17.563C244.48 17.1708 243.942 16.6161 243.55 15.8989C243.158 15.1706 242.962 14.3301 242.962 13.3777C242.962 12.4252 243.152 11.5904 243.533 10.8732C243.914 10.156 244.447 9.60695 245.13 9.22596C245.825 8.83376 246.621 8.63766 247.517 8.63766C248.391 8.63766 249.164 8.82815 249.837 9.20915C250.509 9.59014 251.024 10.1168 251.383 10.7891C251.753 11.4503 251.938 12.2011 251.938 13.0415ZM250.358 12.7221C250.358 12.1394 250.229 11.6408 249.971 11.2262C249.713 10.8004 249.36 10.481 248.912 10.2681C248.475 10.044 247.988 9.93191 247.45 9.93191C246.677 9.93191 246.015 10.1784 245.466 10.6715C244.928 11.1645 244.62 11.8481 244.542 12.7221H250.358ZM267.313 9.67979C266.988 8.99624 266.517 8.46957 265.901 8.09979C265.284 7.71879 264.567 7.5283 263.749 7.5283C262.931 7.5283 262.192 7.71879 261.531 8.09979C260.881 8.46957 260.365 9.00745 259.984 9.7134C259.614 10.4082 259.429 11.215 259.429 12.1338C259.429 13.0527 259.614 13.8595 259.984 14.5543C260.365 15.249 260.881 15.7869 261.531 16.1679C262.192 16.5377 262.931 16.7226 263.749 16.7226C264.892 16.7226 265.834 16.3808 266.573 15.6972C267.313 15.0137 267.744 14.0892 267.867 12.9238H263.195V11.68H269.498V12.8566C269.408 13.8203 269.106 14.7055 268.59 15.5123C268.075 16.3079 267.397 16.9411 266.556 17.4117C265.716 17.8711 264.78 18.1009 263.749 18.1009C262.662 18.1009 261.671 17.8487 260.774 17.3445C259.878 16.829 259.166 16.1174 258.639 15.2098C258.124 14.3021 257.866 13.2768 257.866 12.1338C257.866 10.9909 258.124 9.96553 258.639 9.05787C259.166 8.13901 259.878 7.42745 260.774 6.92319C261.671 6.40773 262.662 6.15 263.749 6.15C264.993 6.15 266.091 6.45815 267.044 7.07447C268.007 7.69078 268.708 8.55922 269.145 9.67979H267.313ZM275.537 18.1513C274.675 18.1513 273.89 17.9552 273.184 17.563C272.489 17.1708 271.94 16.6161 271.537 15.8989C271.145 15.1706 270.949 14.3301 270.949 13.3777C270.949 12.4364 271.15 11.6072 271.554 10.89C271.968 10.1616 272.529 9.60695 273.235 9.22596C273.941 8.83376 274.731 8.63766 275.605 8.63766C276.479 8.63766 277.269 8.83376 277.975 9.22596C278.681 9.60695 279.235 10.156 279.639 10.8732C280.053 11.5904 280.261 12.4252 280.261 13.3777C280.261 14.3301 280.048 15.1706 279.622 15.8989C279.207 16.6161 278.641 17.1708 277.924 17.563C277.207 17.9552 276.411 18.1513 275.537 18.1513ZM275.537 16.8066C276.086 16.8066 276.602 16.6777 277.084 16.42C277.566 16.1623 277.952 15.7757 278.244 15.2602C278.546 14.7448 278.697 14.1172 278.697 13.3777C278.697 12.6381 278.552 12.0106 278.26 11.4951C277.969 10.9796 277.588 10.5987 277.117 10.3521C276.647 10.0944 276.137 9.96553 275.588 9.96553C275.028 9.96553 274.512 10.0944 274.041 10.3521C273.582 10.5987 273.212 10.9796 272.932 11.4951C272.652 12.0106 272.512 12.6381 272.512 13.3777C272.512 14.1284 272.646 14.7616 272.915 15.277C273.195 15.7925 273.565 16.1791 274.025 16.4368C274.484 16.6833 274.988 16.8066 275.537 16.8066ZM283.062 7.29298C282.77 7.29298 282.524 7.19213 282.322 6.99042C282.12 6.78872 282.02 6.5422 282.02 6.25085C282.02 5.9595 282.12 5.71298 282.322 5.51128C282.524 5.30957 282.77 5.20872 283.062 5.20872C283.342 5.20872 283.577 5.30957 283.768 5.51128C283.969 5.71298 284.07 5.9595 284.07 6.25085C284.07 6.5422 283.969 6.78872 283.768 6.99042C283.577 7.19213 283.342 7.29298 283.062 7.29298ZM283.801 8.78893V18H282.272V8.78893H283.801ZM290.896 8.62085C292.017 8.62085 292.924 8.96262 293.619 9.64617C294.314 10.3185 294.661 11.2934 294.661 12.5709V18H293.148V12.7894C293.148 11.8705 292.919 11.1701 292.459 10.6883C292 10.1952 291.372 9.94872 290.577 9.94872C289.77 9.94872 289.126 10.2009 288.644 10.7051C288.173 11.2094 287.938 11.9433 287.938 12.907V18H286.408V8.78893H287.938V10.1C288.24 9.62936 288.649 9.26518 289.165 9.00745C289.691 8.74972 290.269 8.62085 290.896 8.62085ZM300.958 8.63766C301.754 8.63766 302.449 8.81135 303.043 9.15872C303.648 9.5061 304.096 9.94312 304.387 10.4698V8.78893H305.934V18.2017C305.934 19.0421 305.754 19.7873 305.396 20.4372C305.037 21.0984 304.522 21.6138 303.85 21.9836C303.188 22.3534 302.415 22.5383 301.53 22.5383C300.32 22.5383 299.311 22.2526 298.504 21.6811C297.698 21.1096 297.221 20.3308 297.076 19.3447H298.588C298.757 19.905 299.104 20.3532 299.631 20.6894C300.157 21.0367 300.79 21.2104 301.53 21.2104C302.37 21.2104 303.054 20.9471 303.581 20.4204C304.118 19.8938 304.387 19.1542 304.387 18.2017V16.2687C304.085 16.8066 303.637 17.2548 303.043 17.6134C302.449 17.972 301.754 18.1513 300.958 18.1513C300.14 18.1513 299.395 17.9496 298.723 17.5462C298.062 17.1428 297.541 16.5769 297.16 15.8485C296.779 15.1201 296.588 14.2909 296.588 13.3609C296.588 12.4196 296.779 11.596 297.16 10.89C297.541 10.1728 298.062 9.61816 298.723 9.22596C299.395 8.83376 300.14 8.63766 300.958 8.63766ZM304.387 13.3777C304.387 12.6829 304.247 12.0778 303.967 11.5623C303.687 11.0469 303.306 10.6547 302.824 10.3857C302.354 10.1056 301.832 9.96553 301.261 9.96553C300.69 9.96553 300.168 10.1 299.698 10.3689C299.227 10.6379 298.852 11.0301 298.572 11.5455C298.291 12.061 298.151 12.6661 298.151 13.3609C298.151 14.0668 298.291 14.6831 298.572 15.2098C298.852 15.7252 299.227 16.123 299.698 16.4032C300.168 16.6721 300.69 16.8066 301.261 16.8066C301.832 16.8066 302.354 16.6721 302.824 16.4032C303.306 16.123 303.687 15.7252 303.967 15.2098C304.247 14.6831 304.387 14.0724 304.387 13.3777Z" fill="#7D7D7D"/>
<path d="M20.377 5H18.232V4C18.232 3.73478 18.119 3.48043 17.9179 3.29289C17.7168 3.10536 17.444 3 17.1595 3C16.8751 3 16.6023 3.10536 16.4012 3.29289C16.2 3.48043 16.087 3.73478 16.087 4V5H9.65203V4C9.65203 3.73478 9.53904 3.48043 9.3379 3.29289C9.13677 3.10536 8.86398 3 8.57953 3C8.29509 3 8.02229 3.10536 7.82116 3.29289C7.62003 3.48043 7.50703 3.73478 7.50703 4V5H5.36203C4.5087 5 3.69031 5.31607 3.08692 5.87868C2.48352 6.44129 2.14453 7.20435 2.14453 8V20C2.14453 20.7956 2.48352 21.5587 3.08692 22.1213C3.69031 22.6839 4.5087 23 5.36203 23H20.377C21.2304 23 22.0487 22.6839 22.6521 22.1213C23.2555 21.5587 23.5945 20.7956 23.5945 20V8C23.5945 7.20435 23.2555 6.44129 22.6521 5.87868C22.0487 5.31607 21.2304 5 20.377 5ZM21.4495 20C21.4495 20.2652 21.3365 20.5196 21.1354 20.7071C20.9343 20.8946 20.6615 21 20.377 21H5.36203C5.07759 21 4.80479 20.8946 4.60366 20.7071C4.40253 20.5196 4.28953 20.2652 4.28953 20V13H21.4495V20ZM21.4495 11H4.28953V8C4.28953 7.73478 4.40253 7.48043 4.60366 7.29289C4.80479 7.10536 5.07759 7 5.36203 7H7.50703V8C7.50703 8.26522 7.62003 8.51957 7.82116 8.70711C8.02229 8.89464 8.29509 9 8.57953 9C8.86398 9 9.13677 8.89464 9.3379 8.70711C9.53904 8.51957 9.65203 8.26522 9.65203 8V7H16.087V8C16.087 8.26522 16.2 8.51957 16.4012 8.70711C16.6023 8.89464 16.8751 9 17.1595 9C17.444 9 17.7168 8.89464 17.9179 8.70711C18.119 8.51957 18.232 8.26522 18.232 8V7H20.377C20.6615 7 20.9343 7.10536 21.1354 7.29289C21.3365 7.48043 21.4495 7.73478 21.4495 8V11Z" fill="#7D7D7D"/>
<path d="M143.715 11C145.538 11 146.997 9.65 146.997 8C146.997 6.35 145.538 5 143.715 5C141.892 5 140.433 6.35 140.433 8C140.433 9.65 141.892 11 143.715 11ZM143.715 13C140.712 13 138.288 10.76 138.288 8C138.288 5.24 140.712 3 143.715 3C146.718 3 149.142 5.24 149.142 8C149.142 10.76 146.718 13 143.715 13ZM136.207 21H151.222V19.67C151.222 17.92 148.745 16.11 143.715 16.11C138.685 16.11 136.207 17.92 136.207 19.67V21ZM143.715 14.11C150.858 14.11 153.368 17.44 153.368 19.67V23H134.062V19.67C134.062 17.44 136.572 14.11 143.715 14.11Z" fill="#7D7D7D"/>
</svg>
