<svg width="310" height="25" viewBox="0 0 310 25" fill="none" xmlns="http://www.w3.org/2000/svg">
<path d="M39.8559 11.68C39.2284 11.4335 38.7466 11.0749 38.4104 10.6043C38.0742 10.1336 37.9062 9.56213 37.9062 8.88979C37.9062 8.28468 38.0574 7.7412 38.36 7.25936C38.6625 6.76631 39.1108 6.37972 39.7047 6.09957C40.3098 5.80823 41.0381 5.66255 41.8898 5.66255C42.7414 5.66255 43.4642 5.80823 44.0581 6.09957C44.6632 6.37972 45.117 6.76631 45.4196 7.25936C45.7333 7.7412 45.8902 8.28468 45.8902 8.88979C45.8902 9.53972 45.7165 10.1112 45.3691 10.6043C45.0218 11.0861 44.5455 11.4447 43.9404 11.68C44.6352 11.8929 45.1842 12.2683 45.5876 12.8062C46.0023 13.3328 46.2096 13.9716 46.2096 14.7223C46.2096 15.4507 46.0303 16.0894 45.6717 16.6385C45.3131 17.1764 44.8032 17.5966 44.1421 17.8991C43.4922 18.1905 42.7414 18.3362 41.8898 18.3362C41.0381 18.3362 40.2874 18.1905 39.6374 17.8991C38.9987 17.5966 38.5001 17.1764 38.1415 16.6385C37.7829 16.0894 37.6036 15.4507 37.6036 14.7223C37.6036 13.9716 37.8053 13.3272 38.2087 12.7894C38.6121 12.2515 39.1612 11.8817 39.8559 11.68ZM44.411 9.07468C44.411 8.39113 44.1869 7.86447 43.7387 7.49468C43.2905 7.12489 42.6742 6.94 41.8898 6.94C41.1166 6.94 40.5059 7.12489 40.0576 7.49468C39.6094 7.86447 39.3853 8.39674 39.3853 9.09149C39.3853 9.71901 39.615 10.2233 40.0744 10.6043C40.5451 10.9852 41.1502 11.1757 41.8898 11.1757C42.6405 11.1757 43.2457 10.9852 43.7051 10.6043C44.1757 10.2121 44.411 9.7022 44.411 9.07468ZM41.8898 12.3523C41.0605 12.3523 40.3826 12.5484 39.8559 12.9406C39.3293 13.3216 39.0659 13.8987 39.0659 14.6719C39.0659 15.3891 39.3181 15.9662 39.8223 16.4032C40.3378 16.8402 41.0269 17.0587 41.8898 17.0587C42.7526 17.0587 43.4362 16.8402 43.9404 16.4032C44.4447 15.9662 44.6968 15.3891 44.6968 14.6719C44.6968 13.9211 44.4391 13.3496 43.9236 12.9574C43.4081 12.554 42.7302 12.3523 41.8898 12.3523ZM56.6218 6.28447C57.8992 6.28447 59.003 6.52539 59.933 7.00723C60.8743 7.47787 61.5915 8.15581 62.0845 9.04106C62.5888 9.92631 62.8409 10.9684 62.8409 12.1674C62.8409 13.3665 62.5888 14.4086 62.0845 15.2938C61.5915 16.1679 60.8743 16.8402 59.933 17.3109C59.003 17.7703 57.8992 18 56.6218 18H52.9743V6.28447H56.6218ZM56.6218 16.7394C58.1345 16.7394 59.2887 16.3416 60.0843 15.546C60.8799 14.7391 61.2777 13.613 61.2777 12.1674C61.2777 10.7107 60.8743 9.57333 60.0675 8.75532C59.2719 7.9373 58.1233 7.5283 56.6218 7.5283H54.5039V16.7394H56.6218ZM64.287 13.3609C64.287 12.4196 64.4775 11.596 64.8585 10.89C65.2395 10.1728 65.7605 9.61816 66.4217 9.22596C67.094 8.83376 67.8392 8.63766 68.6572 8.63766C69.464 8.63766 70.1644 8.81135 70.7583 9.15872C71.3522 9.5061 71.7948 9.94312 72.0861 10.4698V8.78893H73.6325V18H72.0861V16.2855C71.7836 16.8234 71.3297 17.2716 70.7246 17.6302C70.1307 17.9776 69.436 18.1513 68.6404 18.1513C67.8224 18.1513 67.0828 17.9496 66.4217 17.5462C65.7605 17.1428 65.2395 16.5769 64.8585 15.8485C64.4775 15.1201 64.287 14.2909 64.287 13.3609ZM72.0861 13.3777C72.0861 12.6829 71.9461 12.0778 71.6659 11.5623C71.3858 11.0469 71.0048 10.6547 70.5229 10.3857C70.0523 10.1056 69.5312 9.96553 68.9597 9.96553C68.3883 9.96553 67.8672 10.1 67.3966 10.3689C66.9259 10.6379 66.5505 11.0301 66.2704 11.5455C65.9902 12.061 65.8502 12.6661 65.8502 13.3609C65.8502 14.0668 65.9902 14.6831 66.2704 15.2098C66.5505 15.7252 66.9259 16.123 67.3966 16.4032C67.8672 16.6721 68.3883 16.8066 68.9597 16.8066C69.5312 16.8066 70.0523 16.6721 70.5229 16.4032C71.0048 16.123 71.3858 15.7252 71.6659 15.2098C71.9461 14.6831 72.0861 14.0724 72.0861 13.3777ZM84.151 8.78893L78.6042 22.3366H77.0242L78.8395 17.8991L75.1248 8.78893H76.8224L79.7135 16.2519L82.571 8.78893H84.151ZM88.9494 18.1513C88.2434 18.1513 87.6103 18.0336 87.05 17.7983C86.4898 17.5518 86.0471 17.2156 85.7222 16.7898C85.3972 16.3528 85.2179 15.8541 85.1843 15.2938H86.7643C86.8091 15.7533 87.022 16.1287 87.403 16.42C87.7952 16.7113 88.3051 16.857 88.9326 16.857C89.5153 16.857 89.9747 16.7282 90.3109 16.4704C90.6471 16.2127 90.8151 15.8877 90.8151 15.4955C90.8151 15.0921 90.6359 14.7952 90.2773 14.6047C89.9187 14.403 89.364 14.2069 88.6132 14.0164C87.9297 13.8371 87.3694 13.6578 86.9324 13.4785C86.5066 13.288 86.1368 13.0135 85.823 12.6549C85.5205 12.2851 85.3692 11.8033 85.3692 11.2094C85.3692 10.7387 85.5093 10.3073 85.7894 9.91511C86.0695 9.52291 86.4673 9.21475 86.9828 8.99064C87.4983 8.75532 88.0866 8.63766 88.7477 8.63766C89.7674 8.63766 90.591 8.89539 91.2186 9.41085C91.8461 9.92631 92.1822 10.6323 92.2271 11.5287H90.6975C90.6639 11.0469 90.4678 10.6603 90.1092 10.3689C89.7618 10.0776 89.2912 9.93191 88.6973 9.93191C88.1482 9.93191 87.7112 10.0496 87.3862 10.2849C87.0612 10.5202 86.8988 10.8284 86.8988 11.2094C86.8988 11.5119 86.994 11.764 87.1845 11.9657C87.3862 12.1562 87.6327 12.3131 87.9241 12.4364C88.2266 12.5484 88.6412 12.6773 89.1679 12.823C89.829 13.0023 90.3669 13.1816 90.7815 13.3609C91.1961 13.5289 91.5491 13.7867 91.8405 14.134C92.143 14.4814 92.2999 14.9352 92.3111 15.4955C92.3111 15.9998 92.171 16.4536 91.8909 16.857C91.6107 17.2604 91.2129 17.5798 90.6975 17.8151C90.1932 18.0392 89.6105 18.1513 88.9494 18.1513Z" fill="#7D7D7D"/>
<path d="M175.755 8.73851C175.508 7.49468 174.74 6.87276 173.452 6.87276C172.454 6.87276 171.709 7.25936 171.216 8.03255C170.723 8.79454 170.482 10.0552 170.493 11.8145C170.751 11.2318 171.177 10.7779 171.771 10.453C172.376 10.1168 173.048 9.94872 173.788 9.94872C174.942 9.94872 175.861 10.3073 176.545 11.0245C177.239 11.7416 177.587 12.7333 177.587 13.9996C177.587 14.7616 177.435 15.4451 177.133 16.0502C176.841 16.6553 176.393 17.1372 175.788 17.4957C175.194 17.8543 174.471 18.0336 173.62 18.0336C172.466 18.0336 171.564 17.7759 170.914 17.2604C170.264 16.745 169.81 16.0334 169.552 15.1257C169.294 14.2181 169.166 13.0975 169.166 11.764C169.166 7.65156 170.6 5.59532 173.469 5.59532C174.567 5.59532 175.43 5.89227 176.057 6.48617C176.685 7.08007 177.054 7.83085 177.166 8.73851H175.755ZM173.469 11.243C172.987 11.243 172.533 11.3438 172.107 11.5455C171.681 11.736 171.334 12.033 171.065 12.4364C170.807 12.8286 170.678 13.3104 170.678 13.8819C170.678 14.7335 170.925 15.4283 171.418 15.9662C171.911 16.4928 172.617 16.7562 173.536 16.7562C174.32 16.7562 174.942 16.5152 175.402 16.0334C175.872 15.5404 176.108 14.8792 176.108 14.05C176.108 13.176 175.883 12.4924 175.435 11.9994C174.987 11.4951 174.331 11.243 173.469 11.243ZM179.65 11.7977C179.65 9.87028 179.964 8.36872 180.591 7.29298C181.219 6.20603 182.317 5.66255 183.886 5.66255C185.443 5.66255 186.536 6.20603 187.164 7.29298C187.791 8.36872 188.105 9.87028 188.105 11.7977C188.105 13.7587 187.791 15.2826 187.164 16.3696C186.536 17.4565 185.443 18 183.886 18C182.317 18 181.219 17.4565 180.591 16.3696C179.964 15.2826 179.65 13.7587 179.65 11.7977ZM186.592 11.7977C186.592 10.8228 186.525 9.99915 186.39 9.32681C186.267 8.64326 186.004 8.09418 185.6 7.67957C185.208 7.26496 184.637 7.05766 183.886 7.05766C183.124 7.05766 182.541 7.26496 182.138 7.67957C181.746 8.09418 181.482 8.64326 181.348 9.32681C181.225 9.99915 181.163 10.8228 181.163 11.7977C181.163 12.8062 181.225 13.6522 181.348 14.3357C181.482 15.0193 181.746 15.5684 182.138 15.983C182.541 16.3976 183.124 16.6049 183.886 16.6049C184.637 16.6049 185.208 16.3976 185.6 15.983C186.004 15.5684 186.267 15.0193 186.39 14.3357C186.525 13.6522 186.592 12.8062 186.592 11.7977ZM202.771 9.7134C202.771 10.6883 202.435 11.5007 201.762 12.1506C201.101 12.7894 200.087 13.1087 198.72 13.1087H196.468V18H194.938V6.28447H198.72C200.042 6.28447 201.045 6.60383 201.729 7.24255C202.423 7.88128 202.771 8.70489 202.771 9.7134ZM198.72 11.8481C199.572 11.8481 200.199 11.6632 200.602 11.2934C201.006 10.9236 201.208 10.3969 201.208 9.7134C201.208 8.26787 200.378 7.54511 198.72 7.54511H196.468V11.8481H198.72ZM213.076 13.0415C213.076 13.3328 213.059 13.641 213.026 13.966H205.664C205.72 14.8736 206.028 15.5852 206.588 16.1006C207.16 16.6049 207.849 16.857 208.655 16.857C209.317 16.857 209.866 16.7057 210.303 16.4032C210.751 16.0894 211.065 15.6748 211.244 15.1594H212.891C212.645 16.0446 212.152 16.7674 211.412 17.3277C210.673 17.8767 209.754 18.1513 208.655 18.1513C207.781 18.1513 206.997 17.9552 206.302 17.563C205.619 17.1708 205.081 16.6161 204.689 15.8989C204.296 15.1706 204.1 14.3301 204.1 13.3777C204.1 12.4252 204.291 11.5904 204.672 10.8732C205.053 10.156 205.585 9.60695 206.269 9.22596C206.963 8.83376 207.759 8.63766 208.655 8.63766C209.53 8.63766 210.303 8.82815 210.975 9.20915C211.647 9.59014 212.163 10.1168 212.521 10.7891C212.891 11.4503 213.076 12.2011 213.076 13.0415ZM211.496 12.7221C211.496 12.1394 211.367 11.6408 211.11 11.2262C210.852 10.8004 210.499 10.481 210.051 10.2681C209.614 10.044 209.126 9.93191 208.588 9.93191C207.815 9.93191 207.154 10.1784 206.605 10.6715C206.067 11.1645 205.759 11.8481 205.68 12.7221H211.496ZM219.112 18.1513C218.25 18.1513 217.465 17.9552 216.759 17.563C216.064 17.1708 215.515 16.6161 215.112 15.8989C214.72 15.1706 214.524 14.3301 214.524 13.3777C214.524 12.4364 214.725 11.6072 215.129 10.89C215.543 10.1616 216.104 9.60695 216.81 9.22596C217.516 8.83376 218.306 8.63766 219.18 8.63766C220.054 8.63766 220.844 8.83376 221.55 9.22596C222.256 9.60695 222.81 10.156 223.214 10.8732C223.628 11.5904 223.836 12.4252 223.836 13.3777C223.836 14.3301 223.623 15.1706 223.197 15.8989C222.782 16.6161 222.216 17.1708 221.499 17.563C220.782 17.9552 219.986 18.1513 219.112 18.1513ZM219.112 16.8066C219.661 16.8066 220.177 16.6777 220.659 16.42C221.141 16.1623 221.527 15.7757 221.819 15.2602C222.121 14.7448 222.272 14.1172 222.272 13.3777C222.272 12.6381 222.127 12.0106 221.835 11.4951C221.544 10.9796 221.163 10.5987 220.692 10.3521C220.222 10.0944 219.712 9.96553 219.163 9.96553C218.602 9.96553 218.087 10.0944 217.616 10.3521C217.157 10.5987 216.787 10.9796 216.507 11.4951C216.227 12.0106 216.087 12.6381 216.087 13.3777C216.087 14.1284 216.221 14.7616 216.49 15.277C216.77 15.7925 217.14 16.1791 217.6 16.4368C218.059 16.6833 218.563 16.8066 219.112 16.8066ZM227.376 10.4866C227.679 9.95993 228.127 9.52291 228.721 9.17553C229.326 8.81695 230.026 8.63766 230.822 8.63766C231.64 8.63766 232.38 8.83376 233.041 9.22596C233.713 9.61816 234.24 10.1728 234.621 10.89C235.002 11.596 235.192 12.4196 235.192 13.3609C235.192 14.2909 235.002 15.1201 234.621 15.8485C234.24 16.5769 233.713 17.1428 233.041 17.5462C232.38 17.9496 231.64 18.1513 230.822 18.1513C230.038 18.1513 229.343 17.9776 228.738 17.6302C228.144 17.2716 227.69 16.829 227.376 16.3023V22.3702H225.847V8.78893H227.376V10.4866ZM233.629 13.3609C233.629 12.6661 233.489 12.061 233.209 11.5455C232.929 11.0301 232.548 10.6379 232.066 10.3689C231.595 10.1 231.074 9.96553 230.503 9.96553C229.942 9.96553 229.421 10.1056 228.939 10.3857C228.469 10.6547 228.088 11.0525 227.796 11.5791C227.516 12.0946 227.376 12.6941 227.376 13.3777C227.376 14.0724 227.516 14.6831 227.796 15.2098C228.088 15.7252 228.469 16.123 228.939 16.4032C229.421 16.6721 229.942 16.8066 230.503 16.8066C231.074 16.8066 231.595 16.6721 232.066 16.4032C232.548 16.123 232.929 15.7252 233.209 15.2098C233.489 14.6831 233.629 14.0668 233.629 13.3609ZM238.735 5.5617V18H237.206V5.5617H238.735ZM249.746 13.0415C249.746 13.3328 249.729 13.641 249.696 13.966H242.334C242.39 14.8736 242.698 15.5852 243.258 16.1006C243.83 16.6049 244.519 16.857 245.326 16.857C245.987 16.857 246.536 16.7057 246.973 16.4032C247.421 16.0894 247.735 15.6748 247.914 15.1594H249.561C249.315 16.0446 248.822 16.7674 248.082 17.3277C247.343 17.8767 246.424 18.1513 245.326 18.1513C244.452 18.1513 243.667 17.9552 242.972 17.563C242.289 17.1708 241.751 16.6161 241.359 15.8989C240.967 15.1706 240.771 14.3301 240.771 13.3777C240.771 12.4252 240.961 11.5904 241.342 10.8732C241.723 10.156 242.255 9.60695 242.939 9.22596C243.634 8.83376 244.429 8.63766 245.326 8.63766C246.2 8.63766 246.973 8.82815 247.645 9.20915C248.318 9.59014 248.833 10.1168 249.192 10.7891C249.561 11.4503 249.746 12.2011 249.746 13.0415ZM248.166 12.7221C248.166 12.1394 248.037 11.6408 247.78 11.2262C247.522 10.8004 247.169 10.481 246.721 10.2681C246.284 10.044 245.796 9.93191 245.258 9.93191C244.485 9.93191 243.824 10.1784 243.275 10.6715C242.737 11.1645 242.429 11.8481 242.351 12.7221H248.166ZM265.121 9.67979C264.796 8.99624 264.326 8.46957 263.709 8.09979C263.093 7.71879 262.376 7.5283 261.558 7.5283C260.74 7.5283 260 7.71879 259.339 8.09979C258.689 8.46957 258.174 9.00745 257.793 9.7134C257.423 10.4082 257.238 11.215 257.238 12.1338C257.238 13.0527 257.423 13.8595 257.793 14.5543C258.174 15.249 258.689 15.7869 259.339 16.1679C260 16.5377 260.74 16.7226 261.558 16.7226C262.701 16.7226 263.642 16.3808 264.382 15.6972C265.121 15.0137 265.553 14.0892 265.676 12.9238H261.003V11.68H267.306V12.8566C267.217 13.8203 266.914 14.7055 266.399 15.5123C265.883 16.3079 265.205 16.9411 264.365 17.4117C263.525 17.8711 262.589 18.1009 261.558 18.1009C260.471 18.1009 259.479 17.8487 258.583 17.3445C257.686 16.829 256.975 16.1174 256.448 15.2098C255.933 14.3021 255.675 13.2768 255.675 12.1338C255.675 10.9909 255.933 9.96553 256.448 9.05787C256.975 8.13901 257.686 7.42745 258.583 6.92319C259.479 6.40773 260.471 6.15 261.558 6.15C262.802 6.15 263.9 6.45815 264.852 7.07447C265.816 7.69078 266.516 8.55922 266.953 9.67979H265.121ZM273.346 18.1513C272.483 18.1513 271.699 17.9552 270.993 17.563C270.298 17.1708 269.749 16.6161 269.346 15.8989C268.953 15.1706 268.757 14.3301 268.757 13.3777C268.757 12.4364 268.959 11.6072 269.362 10.89C269.777 10.1616 270.337 9.60695 271.043 9.22596C271.749 8.83376 272.539 8.63766 273.413 8.63766C274.287 8.63766 275.077 8.83376 275.783 9.22596C276.489 9.60695 277.044 10.156 277.447 10.8732C277.862 11.5904 278.069 12.4252 278.069 13.3777C278.069 14.3301 277.856 15.1706 277.431 15.8989C277.016 16.6161 276.45 17.1708 275.733 17.563C275.016 17.9552 274.22 18.1513 273.346 18.1513ZM273.346 16.8066C273.895 16.8066 274.411 16.6777 274.892 16.42C275.374 16.1623 275.761 15.7757 276.052 15.2602C276.355 14.7448 276.506 14.1172 276.506 13.3777C276.506 12.6381 276.36 12.0106 276.069 11.4951C275.778 10.9796 275.397 10.5987 274.926 10.3521C274.455 10.0944 273.946 9.96553 273.396 9.96553C272.836 9.96553 272.321 10.0944 271.85 10.3521C271.391 10.5987 271.021 10.9796 270.741 11.4951C270.461 12.0106 270.321 12.6381 270.321 13.3777C270.321 14.1284 270.455 14.7616 270.724 15.277C271.004 15.7925 271.374 16.1791 271.833 16.4368C272.293 16.6833 272.797 16.8066 273.346 16.8066ZM280.87 7.29298C280.579 7.29298 280.332 7.19213 280.131 6.99042C279.929 6.78872 279.828 6.5422 279.828 6.25085C279.828 5.9595 279.929 5.71298 280.131 5.51128C280.332 5.30957 280.579 5.20872 280.87 5.20872C281.151 5.20872 281.386 5.30957 281.576 5.51128C281.778 5.71298 281.879 5.9595 281.879 6.25085C281.879 6.5422 281.778 6.78872 281.576 6.99042C281.386 7.19213 281.151 7.29298 280.87 7.29298ZM281.61 8.78893V18H280.08V8.78893H281.61ZM288.705 8.62085C289.825 8.62085 290.733 8.96262 291.428 9.64617C292.122 10.3185 292.47 11.2934 292.47 12.5709V18H290.957V12.7894C290.957 11.8705 290.727 11.1701 290.268 10.6883C289.808 10.1952 289.181 9.94872 288.385 9.94872C287.579 9.94872 286.934 10.2009 286.452 10.7051C285.982 11.2094 285.746 11.9433 285.746 12.907V18H284.217V8.78893H285.746V10.1C286.049 9.62936 286.458 9.26518 286.973 9.00745C287.5 8.74972 288.077 8.62085 288.705 8.62085ZM298.767 8.63766C299.563 8.63766 300.257 8.81135 300.851 9.15872C301.456 9.5061 301.905 9.94312 302.196 10.4698V8.78893H303.742V18.2017C303.742 19.0421 303.563 19.7873 303.205 20.4372C302.846 21.0984 302.331 21.6138 301.658 21.9836C300.997 22.3534 300.224 22.5383 299.339 22.5383C298.128 22.5383 297.12 22.2526 296.313 21.6811C295.506 21.1096 295.03 20.3308 294.884 19.3447H296.397C296.565 19.905 296.913 20.3532 297.439 20.6894C297.966 21.0367 298.599 21.2104 299.339 21.2104C300.179 21.2104 300.863 20.9471 301.389 20.4204C301.927 19.8938 302.196 19.1542 302.196 18.2017V16.2687C301.893 16.8066 301.445 17.2548 300.851 17.6134C300.257 17.972 299.563 18.1513 298.767 18.1513C297.949 18.1513 297.204 17.9496 296.532 17.5462C295.87 17.1428 295.349 16.5769 294.968 15.8485C294.587 15.1201 294.397 14.2909 294.397 13.3609C294.397 12.4196 294.587 11.596 294.968 10.89C295.349 10.1728 295.87 9.61816 296.532 9.22596C297.204 8.83376 297.949 8.63766 298.767 8.63766ZM302.196 13.3777C302.196 12.6829 302.056 12.0778 301.776 11.5623C301.496 11.0469 301.115 10.6547 300.633 10.3857C300.162 10.1056 299.641 9.96553 299.07 9.96553C298.498 9.96553 297.977 10.1 297.506 10.3689C297.036 10.6379 296.66 11.0301 296.38 11.5455C296.1 12.061 295.96 12.6661 295.96 13.3609C295.96 14.0668 296.1 14.6831 296.38 15.2098C296.66 15.7252 297.036 16.123 297.506 16.4032C297.977 16.6721 298.498 16.8066 299.07 16.8066C299.641 16.8066 300.162 16.6721 300.633 16.4032C301.115 16.123 301.496 15.7252 301.776 15.2098C302.056 14.6831 302.196 14.0724 302.196 13.3777Z" fill="#7D7D7D"/>
<path d="M20.377 5H18.232V4C18.232 3.73478 18.119 3.48043 17.9179 3.29289C17.7168 3.10536 17.444 3 17.1595 3C16.8751 3 16.6023 3.10536 16.4012 3.29289C16.2 3.48043 16.087 3.73478 16.087 4V5H9.65203V4C9.65203 3.73478 9.53904 3.48043 9.3379 3.29289C9.13677 3.10536 8.86398 3 8.57953 3C8.29509 3 8.02229 3.10536 7.82116 3.29289C7.62003 3.48043 7.50703 3.73478 7.50703 4V5H5.36203C4.5087 5 3.69031 5.31607 3.08692 5.87868C2.48352 6.44129 2.14453 7.20435 2.14453 8V20C2.14453 20.7956 2.48352 21.5587 3.08692 22.1213C3.69031 22.6839 4.5087 23 5.36203 23H20.377C21.2304 23 22.0487 22.6839 22.6521 22.1213C23.2555 21.5587 23.5945 20.7956 23.5945 20V8C23.5945 7.20435 23.2555 6.44129 22.6521 5.87868C22.0487 5.31607 21.2304 5 20.377 5ZM21.4495 20C21.4495 20.2652 21.3365 20.5196 21.1354 20.7071C20.9343 20.8946 20.6615 21 20.377 21H5.36203C5.07759 21 4.80479 20.8946 4.60366 20.7071C4.40253 20.5196 4.28953 20.2652 4.28953 20V13H21.4495V20ZM21.4495 11H4.28953V8C4.28953 7.73478 4.40253 7.48043 4.60366 7.29289C4.80479 7.10536 5.07759 7 5.36203 7H7.50703V8C7.50703 8.26522 7.62003 8.51957 7.82116 8.70711C8.02229 8.89464 8.29509 9 8.57953 9C8.86398 9 9.13677 8.89464 9.3379 8.70711C9.53904 8.51957 9.65203 8.26522 9.65203 8V7H16.087V8C16.087 8.26522 16.2 8.51957 16.4012 8.70711C16.6023 8.89464 16.8751 9 17.1595 9C17.444 9 17.7168 8.89464 17.9179 8.70711C18.119 8.51957 18.232 8.26522 18.232 8V7H20.377C20.6615 7 20.9343 7.10536 21.1354 7.29289C21.3365 7.48043 21.4495 7.73478 21.4495 8V11Z" fill="#7D7D7D"/>
<path d="M143.715 11C145.538 11 146.997 9.65 146.997 8C146.997 6.35 145.538 5 143.715 5C141.892 5 140.433 6.35 140.433 8C140.433 9.65 141.892 11 143.715 11ZM143.715 13C140.712 13 138.288 10.76 138.288 8C138.288 5.24 140.712 3 143.715 3C146.718 3 149.142 5.24 149.142 8C149.142 10.76 146.718 13 143.715 13ZM136.207 21H151.222V19.67C151.222 17.92 148.745 16.11 143.715 16.11C138.685 16.11 136.207 17.92 136.207 19.67V21ZM143.715 14.11C150.858 14.11 153.368 17.44 153.368 19.67V23H134.062V19.67C134.062 17.44 136.572 14.11 143.715 14.11Z" fill="#7D7D7D"/>
</svg>
