<svg width="310" height="25" viewBox="0 0 310 25" fill="none" xmlns="http://www.w3.org/2000/svg">
<path d="M39.8559 11.68C39.2284 11.4335 38.7466 11.0749 38.4104 10.6043C38.0742 10.1336 37.9062 9.56213 37.9062 8.88979C37.9062 8.28468 38.0574 7.7412 38.36 7.25936C38.6625 6.76631 39.1108 6.37972 39.7047 6.09957C40.3098 5.80823 41.0381 5.66255 41.8898 5.66255C42.7414 5.66255 43.4642 5.80823 44.0581 6.09957C44.6632 6.37972 45.117 6.76631 45.4196 7.25936C45.7333 7.7412 45.8902 8.28468 45.8902 8.88979C45.8902 9.53972 45.7165 10.1112 45.3691 10.6043C45.0218 11.0861 44.5455 11.4447 43.9404 11.68C44.6352 11.8929 45.1842 12.2683 45.5876 12.8062C46.0023 13.3328 46.2096 13.9716 46.2096 14.7223C46.2096 15.4507 46.0303 16.0894 45.6717 16.6385C45.3131 17.1764 44.8032 17.5966 44.1421 17.8991C43.4922 18.1905 42.7414 18.3362 41.8898 18.3362C41.0381 18.3362 40.2874 18.1905 39.6374 17.8991C38.9987 17.5966 38.5001 17.1764 38.1415 16.6385C37.7829 16.0894 37.6036 15.4507 37.6036 14.7223C37.6036 13.9716 37.8053 13.3272 38.2087 12.7894C38.6121 12.2515 39.1612 11.8817 39.8559 11.68ZM44.411 9.07468C44.411 8.39113 44.1869 7.86447 43.7387 7.49468C43.2905 7.12489 42.6742 6.94 41.8898 6.94C41.1166 6.94 40.5059 7.12489 40.0576 7.49468C39.6094 7.86447 39.3853 8.39674 39.3853 9.09149C39.3853 9.71901 39.615 10.2233 40.0744 10.6043C40.5451 10.9852 41.1502 11.1757 41.8898 11.1757C42.6405 11.1757 43.2457 10.9852 43.7051 10.6043C44.1757 10.2121 44.411 9.7022 44.411 9.07468ZM41.8898 12.3523C41.0605 12.3523 40.3826 12.5484 39.8559 12.9406C39.3293 13.3216 39.0659 13.8987 39.0659 14.6719C39.0659 15.3891 39.3181 15.9662 39.8223 16.4032C40.3378 16.8402 41.0269 17.0587 41.8898 17.0587C42.7526 17.0587 43.4362 16.8402 43.9404 16.4032C44.4447 15.9662 44.6968 15.3891 44.6968 14.6719C44.6968 13.9211 44.4391 13.3496 43.9236 12.9574C43.4081 12.554 42.7302 12.3523 41.8898 12.3523ZM56.6218 6.28447C57.8992 6.28447 59.003 6.52539 59.933 7.00723C60.8743 7.47787 61.5915 8.15581 62.0845 9.04106C62.5888 9.92631 62.8409 10.9684 62.8409 12.1674C62.8409 13.3665 62.5888 14.4086 62.0845 15.2938C61.5915 16.1679 60.8743 16.8402 59.933 17.3109C59.003 17.7703 57.8992 18 56.6218 18H52.9743V6.28447H56.6218ZM56.6218 16.7394C58.1345 16.7394 59.2887 16.3416 60.0843 15.546C60.8799 14.7391 61.2777 13.613 61.2777 12.1674C61.2777 10.7107 60.8743 9.57333 60.0675 8.75532C59.2719 7.9373 58.1233 7.5283 56.6218 7.5283H54.5039V16.7394H56.6218ZM64.287 13.3609C64.287 12.4196 64.4775 11.596 64.8585 10.89C65.2395 10.1728 65.7605 9.61816 66.4217 9.22596C67.094 8.83376 67.8392 8.63766 68.6572 8.63766C69.464 8.63766 70.1644 8.81135 70.7583 9.15872C71.3522 9.5061 71.7948 9.94312 72.0861 10.4698V8.78893H73.6325V18H72.0861V16.2855C71.7836 16.8234 71.3297 17.2716 70.7246 17.6302C70.1307 17.9776 69.436 18.1513 68.6404 18.1513C67.8224 18.1513 67.0828 17.9496 66.4217 17.5462C65.7605 17.1428 65.2395 16.5769 64.8585 15.8485C64.4775 15.1201 64.287 14.2909 64.287 13.3609ZM72.0861 13.3777C72.0861 12.6829 71.9461 12.0778 71.6659 11.5623C71.3858 11.0469 71.0048 10.6547 70.5229 10.3857C70.0523 10.1056 69.5312 9.96553 68.9597 9.96553C68.3883 9.96553 67.8672 10.1 67.3966 10.3689C66.9259 10.6379 66.5505 11.0301 66.2704 11.5455C65.9902 12.061 65.8502 12.6661 65.8502 13.3609C65.8502 14.0668 65.9902 14.6831 66.2704 15.2098C66.5505 15.7252 66.9259 16.123 67.3966 16.4032C67.8672 16.6721 68.3883 16.8066 68.9597 16.8066C69.5312 16.8066 70.0523 16.6721 70.5229 16.4032C71.0048 16.123 71.3858 15.7252 71.6659 15.2098C71.9461 14.6831 72.0861 14.0724 72.0861 13.3777ZM84.151 8.78893L78.6042 22.3366H77.0242L78.8395 17.8991L75.1248 8.78893H76.8224L79.7135 16.2519L82.571 8.78893H84.151ZM88.9494 18.1513C88.2434 18.1513 87.6103 18.0336 87.05 17.7983C86.4898 17.5518 86.0471 17.2156 85.7222 16.7898C85.3972 16.3528 85.2179 15.8541 85.1843 15.2938H86.7643C86.8091 15.7533 87.022 16.1287 87.403 16.42C87.7952 16.7113 88.3051 16.857 88.9326 16.857C89.5153 16.857 89.9747 16.7282 90.3109 16.4704C90.6471 16.2127 90.8151 15.8877 90.8151 15.4955C90.8151 15.0921 90.6359 14.7952 90.2773 14.6047C89.9187 14.403 89.364 14.2069 88.6132 14.0164C87.9297 13.8371 87.3694 13.6578 86.9324 13.4785C86.5066 13.288 86.1368 13.0135 85.823 12.6549C85.5205 12.2851 85.3692 11.8033 85.3692 11.2094C85.3692 10.7387 85.5093 10.3073 85.7894 9.91511C86.0695 9.52291 86.4673 9.21475 86.9828 8.99064C87.4983 8.75532 88.0866 8.63766 88.7477 8.63766C89.7674 8.63766 90.591 8.89539 91.2186 9.41085C91.8461 9.92631 92.1822 10.6323 92.2271 11.5287H90.6975C90.6639 11.0469 90.4678 10.6603 90.1092 10.3689C89.7618 10.0776 89.2912 9.93191 88.6973 9.93191C88.1482 9.93191 87.7112 10.0496 87.3862 10.2849C87.0612 10.5202 86.8988 10.8284 86.8988 11.2094C86.8988 11.5119 86.994 11.764 87.1845 11.9657C87.3862 12.1562 87.6327 12.3131 87.9241 12.4364C88.2266 12.5484 88.6412 12.6773 89.1679 12.823C89.829 13.0023 90.3669 13.1816 90.7815 13.3609C91.1961 13.5289 91.5491 13.7867 91.8405 14.134C92.143 14.4814 92.2999 14.9352 92.3111 15.4955C92.3111 15.9998 92.171 16.4536 91.8909 16.857C91.6107 17.2604 91.2129 17.5798 90.6975 17.8151C90.1932 18.0392 89.6105 18.1513 88.9494 18.1513Z" fill="#7D7D7D"/>
<path d="M169.333 8.9066C169.411 7.87567 169.809 7.06886 170.526 6.48617C171.243 5.90347 172.173 5.61213 173.316 5.61213C174.078 5.61213 174.734 5.7522 175.283 6.03234C175.843 6.30128 176.264 6.67106 176.544 7.1417C176.835 7.61234 176.981 8.14461 176.981 8.73851C176.981 9.43326 176.779 10.0328 176.376 10.537C175.983 11.0413 175.468 11.3662 174.829 11.5119V11.596C175.558 11.7752 176.135 12.1282 176.56 12.6549C176.986 13.1816 177.199 13.8707 177.199 14.7223C177.199 15.3611 177.054 15.9382 176.762 16.4536C176.471 16.9579 176.034 17.3557 175.451 17.647C174.868 17.9384 174.168 18.084 173.35 18.084C172.162 18.084 171.187 17.7759 170.425 17.1596C169.663 16.5321 169.238 15.6468 169.148 14.5038H170.627C170.706 15.1762 170.98 15.7252 171.451 16.1511C171.921 16.5769 172.549 16.7898 173.333 16.7898C174.118 16.7898 174.712 16.5881 175.115 16.1847C175.53 15.7701 175.737 15.2378 175.737 14.5879C175.737 13.7474 175.457 13.1423 174.896 12.7726C174.336 12.4028 173.49 12.2179 172.358 12.2179H171.972V10.9404H172.375C173.406 10.9292 174.185 10.7611 174.712 10.4362C175.238 10.1 175.502 9.58454 175.502 8.88979C175.502 8.29589 175.305 7.81964 174.913 7.46106C174.532 7.10248 173.983 6.92319 173.266 6.92319C172.571 6.92319 172.011 7.10248 171.585 7.46106C171.159 7.81964 170.907 8.30149 170.829 8.9066H169.333ZM179.264 11.7977C179.264 9.87028 179.578 8.36872 180.206 7.29298C180.833 6.20603 181.931 5.66255 183.5 5.66255C185.058 5.66255 186.15 6.20603 186.778 7.29298C187.405 8.36872 187.719 9.87028 187.719 11.7977C187.719 13.7587 187.405 15.2826 186.778 16.3696C186.15 17.4565 185.058 18 183.5 18C181.931 18 180.833 17.4565 180.206 16.3696C179.578 15.2826 179.264 13.7587 179.264 11.7977ZM186.206 11.7977C186.206 10.8228 186.139 9.99915 186.005 9.32681C185.881 8.64326 185.618 8.09418 185.215 7.67957C184.822 7.26496 184.251 7.05766 183.5 7.05766C182.738 7.05766 182.155 7.26496 181.752 7.67957C181.36 8.09418 181.097 8.64326 180.962 9.32681C180.839 9.99915 180.777 10.8228 180.777 11.7977C180.777 12.8062 180.839 13.6522 180.962 14.3357C181.097 15.0193 181.36 15.5684 181.752 15.983C182.155 16.3976 182.738 16.6049 183.5 16.6049C184.251 16.6049 184.822 16.3976 185.215 15.983C185.618 15.5684 185.881 15.0193 186.005 14.3357C186.139 13.6522 186.206 12.8062 186.206 11.7977ZM202.385 9.7134C202.385 10.6883 202.049 11.5007 201.377 12.1506C200.715 12.7894 199.701 13.1087 198.334 13.1087H196.082V18H194.552V6.28447H198.334C199.656 6.28447 200.659 6.60383 201.343 7.24255C202.038 7.88128 202.385 8.70489 202.385 9.7134ZM198.334 11.8481C199.186 11.8481 199.813 11.6632 200.217 11.2934C200.62 10.9236 200.822 10.3969 200.822 9.7134C200.822 8.26787 199.993 7.54511 198.334 7.54511H196.082V11.8481H198.334ZM212.69 13.0415C212.69 13.3328 212.674 13.641 212.64 13.966H205.278C205.334 14.8736 205.642 15.5852 206.202 16.1006C206.774 16.6049 207.463 16.857 208.27 16.857C208.931 16.857 209.48 16.7057 209.917 16.4032C210.365 16.0894 210.679 15.6748 210.858 15.1594H212.505C212.259 16.0446 211.766 16.7674 211.026 17.3277C210.287 17.8767 209.368 18.1513 208.27 18.1513C207.396 18.1513 206.611 17.9552 205.917 17.563C205.233 17.1708 204.695 16.6161 204.303 15.8989C203.911 15.1706 203.715 14.3301 203.715 13.3777C203.715 12.4252 203.905 11.5904 204.286 10.8732C204.667 10.156 205.199 9.60695 205.883 9.22596C206.578 8.83376 207.373 8.63766 208.27 8.63766C209.144 8.63766 209.917 8.82815 210.589 9.20915C211.262 9.59014 211.777 10.1168 212.136 10.7891C212.505 11.4503 212.69 12.2011 212.69 13.0415ZM211.11 12.7221C211.11 12.1394 210.982 11.6408 210.724 11.2262C210.466 10.8004 210.113 10.481 209.665 10.2681C209.228 10.044 208.74 9.93191 208.203 9.93191C207.429 9.93191 206.768 10.1784 206.219 10.6715C205.681 11.1645 205.373 11.8481 205.295 12.7221H211.11ZM218.727 18.1513C217.864 18.1513 217.079 17.9552 216.373 17.563C215.679 17.1708 215.13 16.6161 214.726 15.8989C214.334 15.1706 214.138 14.3301 214.138 13.3777C214.138 12.4364 214.34 11.6072 214.743 10.89C215.158 10.1616 215.718 9.60695 216.424 9.22596C217.13 8.83376 217.92 8.63766 218.794 8.63766C219.668 8.63766 220.458 8.83376 221.164 9.22596C221.87 9.60695 222.424 10.156 222.828 10.8732C223.242 11.5904 223.45 12.4252 223.45 13.3777C223.45 14.3301 223.237 15.1706 222.811 15.8989C222.396 16.6161 221.831 17.1708 221.113 17.563C220.396 17.9552 219.601 18.1513 218.727 18.1513ZM218.727 16.8066C219.276 16.8066 219.791 16.6777 220.273 16.42C220.755 16.1623 221.141 15.7757 221.433 15.2602C221.735 14.7448 221.887 14.1172 221.887 13.3777C221.887 12.6381 221.741 12.0106 221.45 11.4951C221.158 10.9796 220.777 10.5987 220.307 10.3521C219.836 10.0944 219.326 9.96553 218.777 9.96553C218.217 9.96553 217.701 10.0944 217.231 10.3521C216.771 10.5987 216.401 10.9796 216.121 11.4951C215.841 12.0106 215.701 12.6381 215.701 13.3777C215.701 14.1284 215.836 14.7616 216.104 15.277C216.385 15.7925 216.754 16.1791 217.214 16.4368C217.673 16.6833 218.178 16.8066 218.727 16.8066ZM226.99 10.4866C227.293 9.95993 227.741 9.52291 228.335 9.17553C228.94 8.81695 229.641 8.63766 230.436 8.63766C231.254 8.63766 231.994 8.83376 232.655 9.22596C233.327 9.61816 233.854 10.1728 234.235 10.89C234.616 11.596 234.806 12.4196 234.806 13.3609C234.806 14.2909 234.616 15.1201 234.235 15.8485C233.854 16.5769 233.327 17.1428 232.655 17.5462C231.994 17.9496 231.254 18.1513 230.436 18.1513C229.652 18.1513 228.957 17.9776 228.352 17.6302C227.758 17.2716 227.304 16.829 226.99 16.3023V22.3702H225.461V8.78893H226.99V10.4866ZM233.243 13.3609C233.243 12.6661 233.103 12.061 232.823 11.5455C232.543 11.0301 232.162 10.6379 231.68 10.3689C231.209 10.1 230.688 9.96553 230.117 9.96553C229.557 9.96553 229.036 10.1056 228.554 10.3857C228.083 10.6547 227.702 11.0525 227.411 11.5791C227.131 12.0946 226.99 12.6941 226.99 13.3777C226.99 14.0724 227.131 14.6831 227.411 15.2098C227.702 15.7252 228.083 16.123 228.554 16.4032C229.036 16.6721 229.557 16.8066 230.117 16.8066C230.688 16.8066 231.209 16.6721 231.68 16.4032C232.162 16.123 232.543 15.7252 232.823 15.2098C233.103 14.6831 233.243 14.0668 233.243 13.3609ZM238.349 5.5617V18H236.82V5.5617H238.349ZM249.361 13.0415C249.361 13.3328 249.344 13.641 249.31 13.966H241.948C242.004 14.8736 242.312 15.5852 242.872 16.1006C243.444 16.6049 244.133 16.857 244.94 16.857C245.601 16.857 246.15 16.7057 246.587 16.4032C247.035 16.0894 247.349 15.6748 247.528 15.1594H249.176C248.929 16.0446 248.436 16.7674 247.696 17.3277C246.957 17.8767 246.038 18.1513 244.94 18.1513C244.066 18.1513 243.281 17.9552 242.587 17.563C241.903 17.1708 241.365 16.6161 240.973 15.8989C240.581 15.1706 240.385 14.3301 240.385 13.3777C240.385 12.4252 240.575 11.5904 240.956 10.8732C241.337 10.156 241.87 9.60695 242.553 9.22596C243.248 8.83376 244.043 8.63766 244.94 8.63766C245.814 8.63766 246.587 8.82815 247.259 9.20915C247.932 9.59014 248.447 10.1168 248.806 10.7891C249.176 11.4503 249.361 12.2011 249.361 13.0415ZM247.781 12.7221C247.781 12.1394 247.652 11.6408 247.394 11.2262C247.136 10.8004 246.783 10.481 246.335 10.2681C245.898 10.044 245.411 9.93191 244.873 9.93191C244.099 9.93191 243.438 10.1784 242.889 10.6715C242.351 11.1645 242.043 11.8481 241.965 12.7221H247.781ZM264.736 9.67979C264.411 8.99624 263.94 8.46957 263.324 8.09979C262.707 7.71879 261.99 7.5283 261.172 7.5283C260.354 7.5283 259.615 7.71879 258.953 8.09979C258.304 8.46957 257.788 9.00745 257.407 9.7134C257.037 10.4082 256.852 11.215 256.852 12.1338C256.852 13.0527 257.037 13.8595 257.407 14.5543C257.788 15.249 258.304 15.7869 258.953 16.1679C259.615 16.5377 260.354 16.7226 261.172 16.7226C262.315 16.7226 263.256 16.3808 263.996 15.6972C264.736 15.0137 265.167 14.0892 265.29 12.9238H260.617V11.68H266.921V12.8566C266.831 13.8203 266.528 14.7055 266.013 15.5123C265.498 16.3079 264.82 16.9411 263.979 17.4117C263.139 17.8711 262.203 18.1009 261.172 18.1009C260.085 18.1009 259.094 17.8487 258.197 17.3445C257.301 16.829 256.589 16.1174 256.062 15.2098C255.547 14.3021 255.289 13.2768 255.289 12.1338C255.289 10.9909 255.547 9.96553 256.062 9.05787C256.589 8.13901 257.301 7.42745 258.197 6.92319C259.094 6.40773 260.085 6.15 261.172 6.15C262.416 6.15 263.514 6.45815 264.467 7.07447C265.43 7.69078 266.131 8.55922 266.568 9.67979H264.736ZM272.96 18.1513C272.097 18.1513 271.313 17.9552 270.607 17.563C269.912 17.1708 269.363 16.6161 268.96 15.8989C268.568 15.1706 268.372 14.3301 268.372 13.3777C268.372 12.4364 268.573 11.6072 268.977 10.89C269.391 10.1616 269.952 9.60695 270.658 9.22596C271.364 8.83376 272.154 8.63766 273.028 8.63766C273.902 8.63766 274.692 8.83376 275.398 9.22596C276.104 9.60695 276.658 10.156 277.062 10.8732C277.476 11.5904 277.684 12.4252 277.684 13.3777C277.684 14.3301 277.471 15.1706 277.045 15.8989C276.63 16.6161 276.064 17.1708 275.347 17.563C274.63 17.9552 273.834 18.1513 272.96 18.1513ZM272.96 16.8066C273.509 16.8066 274.025 16.6777 274.507 16.42C274.989 16.1623 275.375 15.7757 275.666 15.2602C275.969 14.7448 276.12 14.1172 276.12 13.3777C276.12 12.6381 275.975 12.0106 275.683 11.4951C275.392 10.9796 275.011 10.5987 274.54 10.3521C274.07 10.0944 273.56 9.96553 273.011 9.96553C272.45 9.96553 271.935 10.0944 271.464 10.3521C271.005 10.5987 270.635 10.9796 270.355 11.4951C270.075 12.0106 269.935 12.6381 269.935 13.3777C269.935 14.1284 270.069 14.7616 270.338 15.277C270.618 15.7925 270.988 16.1791 271.448 16.4368C271.907 16.6833 272.411 16.8066 272.96 16.8066ZM280.485 7.29298C280.193 7.29298 279.947 7.19213 279.745 6.99042C279.543 6.78872 279.442 6.5422 279.442 6.25085C279.442 5.9595 279.543 5.71298 279.745 5.51128C279.947 5.30957 280.193 5.20872 280.485 5.20872C280.765 5.20872 281 5.30957 281.191 5.51128C281.392 5.71298 281.493 5.9595 281.493 6.25085C281.493 6.5422 281.392 6.78872 281.191 6.99042C281 7.19213 280.765 7.29298 280.485 7.29298ZM281.224 8.78893V18H279.695V8.78893H281.224ZM288.319 8.62085C289.44 8.62085 290.347 8.96262 291.042 9.64617C291.737 10.3185 292.084 11.2934 292.084 12.5709V18H290.571V12.7894C290.571 11.8705 290.342 11.1701 289.882 10.6883C289.423 10.1952 288.795 9.94872 288 9.94872C287.193 9.94872 286.548 10.2009 286.067 10.7051C285.596 11.2094 285.361 11.9433 285.361 12.907V18H283.831V8.78893H285.361V10.1C285.663 9.62936 286.072 9.26518 286.588 9.00745C287.114 8.74972 287.691 8.62085 288.319 8.62085ZM298.381 8.63766C299.177 8.63766 299.872 8.81135 300.466 9.15872C301.071 9.5061 301.519 9.94312 301.81 10.4698V8.78893H303.357V18.2017C303.357 19.0421 303.177 19.7873 302.819 20.4372C302.46 21.0984 301.945 21.6138 301.272 21.9836C300.611 22.3534 299.838 22.5383 298.953 22.5383C297.743 22.5383 296.734 22.2526 295.927 21.6811C295.121 21.1096 294.644 20.3308 294.499 19.3447H296.011C296.179 19.905 296.527 20.3532 297.053 20.6894C297.58 21.0367 298.213 21.2104 298.953 21.2104C299.793 21.2104 300.477 20.9471 301.003 20.4204C301.541 19.8938 301.81 19.1542 301.81 18.2017V16.2687C301.508 16.8066 301.06 17.2548 300.466 17.6134C299.872 17.972 299.177 18.1513 298.381 18.1513C297.563 18.1513 296.818 17.9496 296.146 17.5462C295.485 17.1428 294.964 16.5769 294.583 15.8485C294.202 15.1201 294.011 14.2909 294.011 13.3609C294.011 12.4196 294.202 11.596 294.583 10.89C294.964 10.1728 295.485 9.61816 296.146 9.22596C296.818 8.83376 297.563 8.63766 298.381 8.63766ZM301.81 13.3777C301.81 12.6829 301.67 12.0778 301.39 11.5623C301.11 11.0469 300.729 10.6547 300.247 10.3857C299.776 10.1056 299.255 9.96553 298.684 9.96553C298.112 9.96553 297.591 10.1 297.121 10.3689C296.65 10.6379 296.275 11.0301 295.995 11.5455C295.714 12.061 295.574 12.6661 295.574 13.3609C295.574 14.0668 295.714 14.6831 295.995 15.2098C296.275 15.7252 296.65 16.123 297.121 16.4032C297.591 16.6721 298.112 16.8066 298.684 16.8066C299.255 16.8066 299.776 16.6721 300.247 16.4032C300.729 16.123 301.11 15.7252 301.39 15.2098C301.67 14.6831 301.81 14.0724 301.81 13.3777Z" fill="#7D7D7D"/>
<path d="M20.377 5H18.232V4C18.232 3.73478 18.119 3.48043 17.9179 3.29289C17.7168 3.10536 17.444 3 17.1595 3C16.8751 3 16.6023 3.10536 16.4012 3.29289C16.2 3.48043 16.087 3.73478 16.087 4V5H9.65203V4C9.65203 3.73478 9.53904 3.48043 9.3379 3.29289C9.13677 3.10536 8.86398 3 8.57953 3C8.29509 3 8.02229 3.10536 7.82116 3.29289C7.62003 3.48043 7.50703 3.73478 7.50703 4V5H5.36203C4.5087 5 3.69031 5.31607 3.08692 5.87868C2.48352 6.44129 2.14453 7.20435 2.14453 8V20C2.14453 20.7956 2.48352 21.5587 3.08692 22.1213C3.69031 22.6839 4.5087 23 5.36203 23H20.377C21.2304 23 22.0487 22.6839 22.6521 22.1213C23.2555 21.5587 23.5945 20.7956 23.5945 20V8C23.5945 7.20435 23.2555 6.44129 22.6521 5.87868C22.0487 5.31607 21.2304 5 20.377 5ZM21.4495 20C21.4495 20.2652 21.3365 20.5196 21.1354 20.7071C20.9343 20.8946 20.6615 21 20.377 21H5.36203C5.07759 21 4.80479 20.8946 4.60366 20.7071C4.40253 20.5196 4.28953 20.2652 4.28953 20V13H21.4495V20ZM21.4495 11H4.28953V8C4.28953 7.73478 4.40253 7.48043 4.60366 7.29289C4.80479 7.10536 5.07759 7 5.36203 7H7.50703V8C7.50703 8.26522 7.62003 8.51957 7.82116 8.70711C8.02229 8.89464 8.29509 9 8.57953 9C8.86398 9 9.13677 8.89464 9.3379 8.70711C9.53904 8.51957 9.65203 8.26522 9.65203 8V7H16.087V8C16.087 8.26522 16.2 8.51957 16.4012 8.70711C16.6023 8.89464 16.8751 9 17.1595 9C17.444 9 17.7168 8.89464 17.9179 8.70711C18.119 8.51957 18.232 8.26522 18.232 8V7H20.377C20.6615 7 20.9343 7.10536 21.1354 7.29289C21.3365 7.48043 21.4495 7.73478 21.4495 8V11Z" fill="#7D7D7D"/>
<path d="M143.715 11C145.538 11 146.997 9.65 146.997 8C146.997 6.35 145.538 5 143.715 5C141.892 5 140.433 6.35 140.433 8C140.433 9.65 141.892 11 143.715 11ZM143.715 13C140.712 13 138.288 10.76 138.288 8C138.288 5.24 140.712 3 143.715 3C146.718 3 149.142 5.24 149.142 8C149.142 10.76 146.718 13 143.715 13ZM136.207 21H151.222V19.67C151.222 17.92 148.745 16.11 143.715 16.11C138.685 16.11 136.207 17.92 136.207 19.67V21ZM143.715 14.11C150.858 14.11 153.368 17.44 153.368 19.67V23H134.062V19.67C134.062 17.44 136.572 14.11 143.715 14.11Z" fill="#7D7D7D"/>
</svg>
