<svg width="171" height="25" viewBox="0 0 171 25" fill="none" xmlns="http://www.w3.org/2000/svg">
<g clip-path="url(#clip0_753_256)">
<path d="M48.8057 11.574C48.8057 15.2156 50.579 18.4646 53.3518 20.5865V25L57.5064 22.6646C58.6148 22.9781 59.7892 23.149 61.0063 23.149C67.7446 23.149 73.2079 17.9677 73.2079 11.575C73.2089 5.18229 67.7456 0 61.0073 0C54.2689 0 48.8057 5.18125 48.8057 11.574V11.574ZM59.72 8.33229L62.9026 11.7271L68.8885 8.33229L62.2183 15.5844L59.112 12.1906L53.0488 15.5854L59.72 8.33229Z" fill="#DF6951"/>
</g>
<path d="M24.3973 25.001V25H24.4034V15.8312C24.4034 11.3458 23.4609 7.89062 18.3423 7.89062C15.8816 7.89062 14.2303 9.27396 13.5562 10.5854H13.485V8.30937H8.63184V25H13.6853V16.7354C13.6853 14.5594 14.088 12.4552 16.7185 12.4552C19.3103 12.4552 19.3489 14.9385 19.3489 16.875V25.001H24.3973Z" fill="#DF6951"/>
<path d="M0.402344 8.31055H5.46151V25.0012H0.402344V8.31055Z" fill="#DF6951"/>
<path d="M2.93017 0C1.31258 0 0 1.34479 0 3.00208C0 4.65938 1.31258 6.03229 2.93017 6.03229C4.54776 6.03229 5.86033 4.65938 5.86033 3.00208C5.85931 1.34479 4.54674 0 2.93017 0V0Z" fill="#DF6951"/>
<path d="M119.509 7.40938C120.501 6.6875 121.336 5.78646 122.017 4.74896V4.74792C121.109 5.15521 120.143 5.42604 119.134 5.55729C120.171 4.92292 120.963 3.92604 121.335 2.725C120.368 3.31562 119.301 3.73229 118.163 3.96563C117.245 2.96354 115.936 2.34375 114.508 2.34375C111.739 2.34375 109.509 4.64688 109.509 7.46979C109.509 7.87604 109.542 8.26667 109.625 8.63854C105.466 8.43021 101.785 6.38854 99.3124 3.27708C98.8812 4.04479 98.627 4.92292 98.627 5.86771C98.627 7.64271 99.5188 9.21563 100.85 10.1271C100.045 10.1115 99.2574 9.87188 98.5894 9.49583V9.55208C98.5894 12.0427 100.323 14.1115 102.598 14.5885C102.19 14.7031 101.747 14.7573 101.286 14.7573C100.966 14.7573 100.642 14.7385 100.339 14.6698C100.987 16.699 102.827 18.1917 105.014 18.2406C103.311 19.6042 101.15 20.426 98.8101 20.426C98.4003 20.426 98.0068 20.4073 97.6133 20.3563C99.8299 21.8198 102.455 22.6563 105.288 22.6563C114.117 22.6563 119.871 15.1104 119.509 7.40938Z" fill="#DF6951"/>
<path d="M156.707 17.623C156.772 17.5667 156.838 17.5084 156.899 17.4469C153.502 20.8615 147.963 19.2678 146.664 14.4522V14.4449C144.922 7.89278 152.267 2.9157 156.897 7.49903C156.994 7.60424 163.391 14.5928 162.984 14.148H163.002C163.957 15.1563 165.338 15.0459 166.159 14.1647C167.043 13.2188 167.075 11.6751 166.207 10.7136C164.838 9.09799 162.148 10.3053 162.405 12.7001L160.866 11.0938L159.08 9.34486C159.449 8.59591 159.931 7.9407 160.536 7.37403C160.471 7.43132 160.405 7.4907 160.344 7.55007C163.755 4.12299 169.29 5.75424 170.579 10.549V10.5553C172.325 17.1063 164.973 22.0834 160.346 17.5001C160.252 17.3959 153.859 10.3636 154.264 10.8094L154.26 10.7938C154.244 10.7938 154.244 10.7782 154.244 10.7782C153.241 9.71882 151.881 9.8782 151.086 10.7459C150.202 11.6917 150.171 13.2355 151.041 14.1824C152.35 15.7605 155.098 14.5907 154.839 12.148C154.939 12.2532 158.387 15.8792 158.167 15.649C157.609 16.7897 156.985 17.3136 156.707 17.623Z" fill="#DF6951"/>
<defs>
<clipPath id="clip0_753_256">
<rect width="24.4032" height="25" fill="white" transform="translate(48.8057)"/>
</clipPath>
</defs>
</svg>
